<svg width="40" height="40" viewBox="0 0 40 40" fill="none" xmlns="http://www.w3.org/2000/svg">
<circle cx="20" cy="20" r="20" fill="#F2F2F7"/>
<path d="M31.9229 21.2792C31.9229 17.2039 29.7031 13.6208 26.3683 11.5798L26.413 14.3471C28.3953 16.0509 29.6515 18.5291 29.6515 21.2792C29.6515 22.5355 29.383 23.7333 28.9116 24.8279C27.4765 23.4649 26.4543 21.8609 25.8177 19.9678C25.0502 17.6755 24.8713 15.1663 24.8437 12.0995L24.8472 10.7812C24.1589 10.4852 23.4396 10.2512 22.7031 10.0859L22.7066 12.096C22.7788 22.6835 24.6131 27.0479 27.3422 30.3281C30.1333 28.2216 31.9229 24.9518 31.9229 21.2792C31.9229 21.2826 31.9229 21.2826 31.9229 21.2792ZM17.2197 12.098L17.2232 10.0879C16.4867 10.2531 15.7674 10.4872 15.0791 10.7832L15.0826 12.1014C15.0516 15.1648 14.8761 17.6774 14.1086 19.9698C13.4754 21.8629 12.4498 23.4634 11.0147 24.8298C10.5433 23.7353 10.2748 22.5375 10.2748 21.2812C10.2748 18.5276 11.5275 16.0528 13.5132 14.349L13.558 11.5817C10.2198 13.6193 8 17.2024 8 21.2777V21.2812C8 24.9537 9.79301 28.2236 12.5806 30.3301C15.3166 27.0533 17.1475 22.6855 17.2197 12.098ZM21.0354 8.04475C20.6465 8.01377 20.2955 8 19.9651 8C19.6347 8 19.2837 8.01377 18.8913 8.04475V10.4231C18.8913 20.8454 18.4887 25.375 16.9297 32.4104C18.9051 32.9095 21.0044 32.9095 22.9833 32.4139C21.4346 25.4301 21.0354 20.9005 21.0354 10.4231V8.04475Z" fill="#4C3191"/>
</svg>
