<svg width="40" height="40" viewBox="0 0 40 40" fill="none" xmlns="http://www.w3.org/2000/svg">
<circle cx="20" cy="20" r="20" fill="#F2F2F7"/>
<path fill-rule="evenodd" clip-rule="evenodd" d="M20.2836 9C21.6164 9 22.0353 10.0506 22.3854 11.1012C22.5342 11.5464 25.9962 21.9788 26.0993 22.2914C26.1284 22.379 26.1094 22.522 25.9869 22.5739C25.8643 22.6242 24.0653 23.3953 23.966 23.4359C23.8666 23.4766 23.7546 23.4165 23.718 23.3076C23.681 23.1989 22.9354 20.9248 22.8512 20.6705H17.7219C17.6373 20.9248 16.8839 23.2037 16.8493 23.3076C16.8151 23.4116 16.7067 23.4814 16.6017 23.4359C16.4962 23.3905 14.6891 22.6193 14.5824 22.5739C14.4791 22.53 14.4315 22.4001 14.4686 22.2914C14.5954 21.9005 18.0048 11.6363 18.1793 11.1012C18.5169 10.0675 18.951 9 20.2836 9ZM14.1942 27.6648C14.0868 27.6648 14 27.7638 14 27.8855V30.3223C14 30.4442 14.0869 30.5415 14.1942 30.5415H26.3732C26.4799 30.5415 26.5659 30.4442 26.5659 30.3223V27.8855C26.5659 27.7637 26.4799 27.6648 26.3732 27.6648H14.1942ZM20.2735 12.4063L18.5387 18.1369H22.0355L20.2948 12.4063H20.2737H20.2735Z" fill="#FF0000"/>
</svg>
