<svg width="40" height="40" viewBox="0 0 40 40" fill="none" xmlns="http://www.w3.org/2000/svg">
<circle cx="20" cy="20" r="20" fill="#F2F2F7"/>
<mask id="mask0_50_13" style="mask-type:alpha" maskUnits="userSpaceOnUse" x="9" y="9" width="22" height="22">
<path d="M30.7384 9H9V31H30.7384V9Z" fill="black"/>
</mask>
<g mask="url(#mask0_50_13)">
<path d="M11.508 19.9892C11.508 19.8572 11.508 19.7142 11.519 19.5712L9.01099 19.4502C8.99999 19.6262 8.99997 19.8132 8.99997 19.9892C8.99997 23.0362 10.21 25.7862 12.179 27.7772L13.961 25.9732C12.443 24.4442 11.508 22.3322 11.508 19.9892Z" fill="url(#paint0_linear_50_13)"/>
<path d="M19.868 11.541C20 11.541 20.143 11.541 20.286 11.552L20.407 9.011C20.231 9 20.044 9 19.868 9C16.865 9 14.148 10.221 12.179 12.212L13.95 14.016C15.468 12.487 17.558 11.541 19.868 11.541Z" fill="url(#paint1_linear_50_13)"/>
<path d="M19.868 28.4591C19.725 28.4591 19.582 28.4481 19.45 28.4481L19.318 30.9781C19.505 30.9891 19.681 31.0001 19.868 31.0001C22.86 31.0001 25.577 29.7681 27.546 27.7771L25.775 25.9731C24.257 27.5021 22.167 28.4591 19.868 28.4591Z" fill="url(#paint2_linear_50_13)"/>
<path d="M24.576 13.015L26.688 11.431C24.818 9.913 22.453 9 19.868 9V11.541C21.606 11.541 23.234 12.08 24.576 13.015Z" fill="url(#paint3_linear_50_13)"/>
<path d="M30.736 20C30.736 19.318 30.67 18.658 30.56 18.02L28.217 19.769C28.217 19.846 28.217 19.923 28.217 20C28.217 22.475 27.161 24.719 25.467 26.259L27.15 28.151C29.35 26.138 30.736 23.234 30.736 20Z" fill="#21A038"/>
<path d="M19.868 28.459C17.404 28.459 15.193 27.381 13.664 25.665L11.805 27.37C13.796 29.603 16.667 31 19.868 31V28.459Z" fill="url(#paint4_linear_50_13)"/>
<path d="M14.258 13.7299L12.575 11.8379C10.375 13.8509 9 16.7549 9 19.9999H11.508C11.508 17.5139 12.564 15.2699 14.258 13.7299Z" fill="url(#paint5_linear_50_13)"/>
<path d="M28.459 13.2681C28.976 13.9391 29.416 14.6761 29.768 15.4571L19.868 22.8381L15.721 20.2201V17.0631L19.868 19.6811L28.459 13.2681Z" fill="#21A038"/>
</g>
<defs>
<linearGradient id="paint0_linear_50_13" x1="12.691" y1="27.4606" x2="9.94749" y2="19.4347" gradientUnits="userSpaceOnUse">
<stop offset="0.1444" stop-color="#F2E913"/>
<stop offset="0.3037" stop-color="#E7E518"/>
<stop offset="0.5823" stop-color="#CADB26"/>
<stop offset="0.891" stop-color="#A3CD39"/>
</linearGradient>
<linearGradient id="paint1_linear_50_13" x1="12.9001" y1="12.6719" x2="19.9664" y2="9.94674" gradientUnits="userSpaceOnUse">
<stop offset="0.0592" stop-color="#0FA8E0"/>
<stop offset="0.5385" stop-color="#0099F9"/>
<stop offset="0.9234" stop-color="#0291EB"/>
</linearGradient>
<linearGradient id="paint2_linear_50_13" x1="19.16" y1="29.4674" x2="27.1507" y2="27.6397" gradientUnits="userSpaceOnUse">
<stop offset="0.1226" stop-color="#A3CD39"/>
<stop offset="0.2846" stop-color="#86C339"/>
<stop offset="0.8693" stop-color="#21A038"/>
</linearGradient>
<linearGradient id="paint3_linear_50_13" x1="19.3432" y1="9.8519" x2="26.1751" y2="11.9852" gradientUnits="userSpaceOnUse">
<stop offset="0.0566" stop-color="#0291EB"/>
<stop offset="0.79" stop-color="#0C8ACB"/>
</linearGradient>
<linearGradient id="paint4_linear_50_13" x1="12.4385" y1="27.0711" x2="19.875" y2="29.883" gradientUnits="userSpaceOnUse">
<stop offset="0.1324" stop-color="#F2E913"/>
<stop offset="0.2977" stop-color="#EBE716"/>
<stop offset="0.5306" stop-color="#D9E01F"/>
<stop offset="0.8023" stop-color="#BBD62D"/>
<stop offset="0.9829" stop-color="#A3CD39"/>
</linearGradient>
<linearGradient id="paint5_linear_50_13" x1="9.93466" y1="20.3081" x2="12.9197" y2="12.4494" gradientUnits="userSpaceOnUse">
<stop offset="0.0698" stop-color="#A3CD39"/>
<stop offset="0.2599" stop-color="#81C55F"/>
<stop offset="0.9216" stop-color="#0FA8E0"/>
</linearGradient>
</defs>
</svg>
