<svg width="253" height="272" viewBox="0 0 253 272" fill="none" xmlns="http://www.w3.org/2000/svg">
<g clip-path="url(#clip0_66_116)">
<mask id="mask0_66_116" style="mask-type:luminance" maskUnits="userSpaceOnUse" x="0" y="0" width="253" height="272">
<path d="M0 0H253V272H0V0Z" fill="white"/>
</mask>
<g mask="url(#mask0_66_116)">
<path d="M188.167 81.3498C188.21 81.4198 188.981 81.7478 189.209 82.0188C189.994 82.9588 189.223 83.3868 189.266 84.2268C189.295 84.6968 189.666 84.9968 189.609 85.5238C189.566 85.8658 189.266 86.0938 189.28 86.5068C189.28 86.6068 189.452 88.0308 189.466 88.1168C189.537 88.4298 190.066 88.8428 190.18 89.2138C190.822 91.2508 189.694 92.7468 189.609 94.5418C189.58 95.0408 189.966 95.3248 189.866 95.9238C189.766 96.5228 189.223 97.1638 189.023 97.7038C188.895 98.0608 188.981 98.4738 188.866 98.8588C188.695 99.4428 188.024 100.07 187.767 100.697C187.482 101.38 187.453 102.634 186.768 102.976C186.497 103.104 186.154 103.033 185.912 103.261C185.455 103.688 185.198 104.885 184.27 105.54C183.342 106.196 183.142 105.298 182.714 105.612C182.443 106.495 181.387 107.62 180.473 107.791C179.916 107.891 179.617 107.649 179.217 107.663C178.289 107.72 177.718 108.846 176.505 107.335C176.076 108.718 176.476 110.157 176.505 111.496C176.533 112.806 176.462 114.117 176.505 115.428C176.519 116.268 177.147 118.12 175.906 118.405C175.377 118.533 174.663 118.519 174.549 117.864C174.678 115.356 174.778 112.863 174.877 110.356C174.906 109.586 175.577 107.535 174.307 107.521C173.793 107.521 173.179 108.048 172.522 107.991C171.894 107.934 171.551 107.35 171.494 107.335C171.023 107.236 170.61 107.506 170.224 107.492C170.024 107.492 167.626 105.939 167.512 105.797C167.212 105.441 167.127 104.415 166.984 104.272C166.77 104.059 165.285 103.46 164.728 102.862C164.243 102.349 164.314 101.409 163.629 101.167C162.944 100.924 163.144 101.394 162.859 101.623C162.245 102.15 161.674 101.779 161.131 102.036C160.589 102.292 160.646 102.862 159.49 102.449L159.647 110.042L159.49 110.384L158.191 110.27C158.191 108.347 158.134 106.409 158.162 104.486C158.162 104.087 158.348 103.745 158.333 103.361C158.291 101.466 157.306 102.962 156.321 102.748C155.65 102.606 155.507 101.922 155.35 101.836C155.15 101.722 154.479 101.836 154.065 101.722C152.852 101.395 152.267 100.141 151.61 99.2718C150.683 98.0608 150.882 98.8298 150.426 97.1778C150.326 96.8208 149.897 96.5788 149.812 96.1518C149.726 95.6528 149.869 95.1688 149.726 94.5988C149.598 94.1148 149.041 93.7438 148.984 93.3738C148.841 92.5618 149.64 91.9208 149.626 91.2508C149.626 90.9088 149.284 90.6808 149.312 90.1398C149.369 89.4128 150.026 88.8148 150.111 88.3158C150.197 87.8598 150.054 87.3328 150.126 86.8628C150.468 84.7968 151.539 82.3328 152.438 80.3528C152.681 79.8108 152.781 78.7708 153.294 78.4288C153.58 78.2438 153.965 78.3008 154.208 78.0438C154.522 77.7028 154.394 76.9608 154.765 76.6338C155.065 76.3638 155.636 76.4058 155.992 76.2208C156.349 76.0348 156.692 75.3798 156.992 75.2508C157.306 75.1088 157.663 75.1948 157.977 75.0948C158.505 74.9248 158.49 74.3678 159.318 74.5388C159.89 74.6528 159.932 75.2088 160.204 75.3088C160.532 75.4228 160.974 75.2518 161.302 75.3658C161.588 75.4658 161.645 75.9498 161.902 76.0778C162.273 76.2628 162.687 76.0778 163.201 76.4058C163.586 76.6478 164.543 78.2718 164.514 78.7708H165C165 78.7708 165.128 77.5738 165.257 77.3028C165.385 77.0038 166.17 76.4058 166.284 76.0348C166.484 75.3228 166.113 74.2258 166.712 73.5278C167.027 73.1718 167.583 73.1858 167.798 72.9718C168.04 72.7298 167.94 72.2738 168.126 72.0038C168.297 71.7468 168.697 71.7188 168.954 71.5188C169.41 71.1488 169.125 70.7788 170.253 70.8638C170.453 70.7358 170.581 69.2108 171.137 68.7978C171.551 68.4988 172.451 68.5278 172.979 68.2568C173.036 68.2278 173.878 67.5298 173.921 67.4868C174.606 66.7038 174.378 65.5638 175.891 65.8768C176.362 65.9768 176.59 66.5038 176.962 66.7608C177.433 67.0738 178.774 67.9858 179.174 68.1428C179.988 68.4558 181.429 68.3278 182.029 69.0548C182.386 69.4818 182.486 70.4368 182.771 70.9208C183.128 71.5188 183.885 71.6328 184.127 72.0038C184.413 72.4448 184.199 72.9578 184.384 73.3708C184.541 73.7408 185.883 74.9098 186.14 75.5368C186.297 75.9068 186.197 76.3058 186.354 76.6338C186.525 77.0468 187.553 77.6168 187.782 78.1438C188.067 78.7988 187.896 80.9938 188.096 81.3348L188.167 81.3498ZM177.161 70.4358C177.347 70.2368 175.905 67.4298 175.463 67.5158C175.135 67.5728 174.635 68.4418 174.692 68.7978L173.55 68.7128L173.222 69.6238C173.036 69.7948 172.608 68.9838 171.98 69.4538C171.523 69.7948 171.537 70.8498 171.166 71.2628C170.767 71.7038 169.981 71.6038 169.625 71.8468C169.211 72.1168 168.896 73.6568 168.568 73.8978C168.212 74.1688 167.626 73.8978 167.398 74.1978C167.012 75.0668 167.312 76.0208 166.998 76.9048C166.784 77.5168 166.356 77.6168 166.17 77.9158C166.027 78.1438 165.257 79.5538 165.228 79.7108C165.057 80.4508 165.599 80.9218 165.499 81.2778C165.399 81.6338 164.529 82.0898 164.414 82.4888C164.272 82.9588 164.514 83.5718 164.3 84.0138C164.143 84.3268 163.501 84.4838 163.287 84.7118C162.587 85.4668 163.058 87.2188 162.916 88.1878C162.859 88.6148 162.559 88.8288 162.559 89.3128C162.559 89.7978 162.83 90.0678 162.901 90.4668C163.115 91.8638 162.145 92.5758 162.616 94.3428C162.744 94.8128 163.158 95.2108 163.23 95.6958C163.358 96.5788 162.944 97.3338 163.315 98.3878C163.529 98.9868 164.015 98.8728 164.186 99.0728C164.386 99.3148 164.286 100.041 164.472 100.34C164.658 100.639 165.385 100.682 165.542 100.939C165.799 101.338 165.571 101.922 165.842 102.392C166.284 103.161 167.326 102.777 167.883 103.133C168.312 103.404 168.639 104.643 169.039 105.084C169.211 105.27 170.824 106.125 171.052 106.196C171.494 106.31 171.837 106.025 172.28 106.096C173.208 106.238 174.192 107.706 174.778 105.583C175.363 105.868 175.634 106.41 175.677 107.051H176.148C176.405 106.324 176.49 105.113 175.506 105.084C175.334 104.643 175.863 104.814 175.977 104.5C176.105 104.144 175.963 103.275 175.563 103.147C175.135 103.004 173.778 103.746 174.221 102.42C174.406 101.85 175.82 102.42 176.091 102.007L176.348 100.227C177.161 100.098 177.775 99.6988 178.047 98.9008C178.161 98.5878 178.047 98.2888 178.132 98.0328C178.146 97.9468 178.717 97.7188 178.446 97.1058L177.633 97.2628L177.204 96.1518C176.533 96.5648 176.947 95.3968 176.205 95.1688C176.048 95.1258 174.292 95.2688 174.135 95.3248C174.021 95.3678 173.564 96.3648 173.136 95.4678C172.294 93.7008 175.049 94.8128 175.334 93.7298C175.449 93.2738 174.821 93.1738 174.849 92.6328C174.892 92.0488 175.677 91.2228 175.52 90.5238C175.491 90.3818 173.093 89.6408 175.077 88.9568L175.606 89.5978L177.133 88.9998C177.062 88.2598 177.076 87.3758 176.205 87.1758C175.891 87.1058 175.406 87.2188 175.206 87.1058C174.806 86.8768 173.793 84.9958 174.778 84.6968L175.606 85.3238C176.262 85.1958 177.861 84.1268 177.604 83.3298C177.404 82.7168 176.476 83.3578 176.148 83.1588C176.005 83.0728 175.763 82.4318 175.506 82.1608C174.949 81.5628 174.107 81.5908 173.864 80.7788L175.663 81.1068C175.891 80.1808 175.077 79.6678 175.506 78.8138C176.476 78.9558 177.276 79.9108 178.275 79.2118C178.874 78.7848 178.76 77.0038 177.904 77.3598C177.604 77.4888 177.561 78.0728 177.218 77.9868C176.362 77.0038 176.462 75.9778 176.976 74.8808L176.162 75.6938C176.076 75.0238 175.135 74.7538 175.02 74.1408C174.821 73.1428 175.563 72.5448 175.52 71.7038C175.491 71.0778 174.892 70.6358 175.02 69.9938L177.147 70.4788L177.161 70.4358ZM178.617 70.5788C179.174 70.2228 178.503 68.6988 177.704 69.4958C177.062 70.1368 178.061 70.9208 178.617 70.5788ZM180.559 70.3228L179.46 70.1228C179.174 72.0028 181.415 71.1338 180.559 70.3228ZM180.245 73.8408C180.944 72.7308 178.503 71.4908 178.161 72.8438C177.961 73.5988 179.859 74.4678 180.245 73.8408ZM183.171 73.8268C183.485 73.4998 183.285 72.2308 182.643 72.3878C180.959 73.0008 182.015 74.9938 183.171 73.8268ZM178.261 74.8968C177.147 74.9248 177.19 76.4208 177.761 76.6208C179.16 77.1048 179.445 74.8538 178.261 74.8968ZM183.171 75.3668C182.629 75.5238 182.557 76.3068 183.057 76.5638C184.142 77.1048 184.584 74.9398 183.171 75.3668ZM160.96 76.6488L159.904 76.9908C159.261 76.9338 158.776 75.3668 157.391 75.9508C157.106 76.0648 156.763 76.8908 156.364 77.0618C156.021 77.2038 155.55 77.0758 155.407 77.1618C155.35 77.2048 155.15 78.0588 154.893 78.3718C154.465 78.9138 153.58 78.9858 153.323 79.7548C153.209 80.1108 153.28 80.4948 153.123 80.8658C152.995 81.1938 152.552 81.3928 152.467 81.6778C152.324 82.1768 152.524 82.7888 152.353 83.3738C152.196 83.8858 151.296 84.6838 151.182 85.1538C151.082 85.5388 151.368 86.2078 151.239 86.8348C151.068 87.6468 150.24 89.2148 150.154 89.8548C150.083 90.4398 150.454 90.7818 150.454 91.2798C150.454 92.0498 149.797 92.3628 149.969 93.3888C150.054 93.9588 150.568 94.1718 150.625 94.5428C150.683 94.9558 150.369 95.2828 150.526 95.7678C150.683 96.2518 151.253 96.3238 151.353 96.5658C151.439 96.7658 151.096 97.4058 151.353 97.8908C151.51 98.1908 151.896 98.1328 152.038 98.2608C152.838 99.0308 153.038 100.228 154.137 100.826C154.794 101.182 155.322 101.025 155.892 101.196C156.378 101.339 156.892 102.25 157.491 101.524C157.905 101.025 157.705 99.9278 157.962 99.7568C158.305 99.7998 159.49 99.8138 159.604 99.4438C159.804 98.8028 158.533 98.8308 158.276 98.4318C158.134 98.2188 158.048 97.7768 158.205 97.5628C158.519 97.0928 159.033 97.8628 159.433 97.7338C159.39 96.7508 160.289 97.3488 160.418 96.6658C160.803 94.7708 158.405 96.1378 157.634 95.7678L157.791 96.9078C156.035 96.9078 156.692 95.8678 157.391 94.9558C157.691 94.5568 158.177 94.7278 158.134 93.8878C158.062 92.6048 157.12 93.8448 156.892 93.8018C155.949 91.7218 157.734 92.6198 158.333 92.4768C158.547 92.4198 158.719 92.0778 158.947 91.9358C159.49 91.6078 160.161 91.8788 159.604 90.6108H158.776C158.362 89.0148 159.989 89.1008 159.689 87.9178C159.647 87.7178 159.461 87.4198 159.218 87.4478C158.462 87.6898 158.605 88.5018 157.634 88.2458V86.9358L158.447 87.0918L157.962 86.3518V86.0378C158.005 85.8808 158.576 85.9808 158.462 85.2258C158.319 84.2858 157.049 85.0548 157.149 84.4138C157.22 83.9998 157.52 83.1308 158.034 83.1738C158.091 83.1738 158.062 83.6728 159.033 83.5158C160.175 83.3448 159.533 82.6608 159.675 82.3478C159.775 82.1338 160.603 82.0058 160.232 81.4078C160.046 81.1078 157.977 81.5358 158.119 80.1538C158.119 80.0678 159.104 78.8708 159.161 78.8138C160.004 78.0878 161.288 78.5008 160.903 76.6338L160.96 76.6488ZM162.045 77.1478C161.231 77.3898 161.716 79.1988 162.744 77.6888C162.787 77.4188 162.33 77.0618 162.045 77.1478ZM180.059 77.1618C179.046 77.4608 180.059 79.1988 180.773 78.0448C181.187 77.3748 180.773 76.9478 180.059 77.1618ZM183.827 77.8318C183.357 77.3748 182.243 77.5888 182.414 78.4868C182.743 80.1248 184.812 78.8008 183.827 77.8318ZM186.454 80.0388C186.739 79.7678 186.654 77.6738 185.926 77.6448C184.598 77.5748 184.541 80.1098 185.598 80.2528C185.826 80.2808 186.283 80.1948 186.454 80.0388ZM160.803 80.2388C161.331 80.5938 161.774 79.4258 161.203 79.2548C160.489 79.0408 160.617 80.1108 160.803 80.2388ZM162.544 79.2678C162.045 79.4248 161.959 80.2798 162.687 80.3938C163.9 80.5788 163.387 78.9838 162.544 79.2678ZM180.288 81.5188C181.287 82.3028 183.2 80.0658 181.672 80.0658C180.716 80.0658 180.088 80.5068 180.288 81.5188ZM177.818 81.7058L177.661 80.7938C176.076 80.4238 176.69 81.8198 177.818 81.7058ZM161.145 81.3918C160.775 81.6488 161.046 82.8168 161.788 82.4468C162.63 82.0188 161.645 81.0498 161.145 81.3918ZM163.087 82.5168C161.345 82.3748 162.502 84.2558 163.016 83.5008L163.087 82.5168ZM182.186 82.5458C181.601 82.6878 181.344 83.7428 182.072 84.0698C183.342 84.6548 183.399 82.2328 182.186 82.5458ZM187.924 84.1128C188.838 83.2018 186.797 81.8048 186.668 83.4298C186.597 84.2128 187.468 84.5828 187.924 84.1128ZM185.326 84.1418C185.326 84.1418 185.469 83.7858 185.469 83.7138C185.555 82.6888 183.685 82.7168 184.399 83.9558C184.541 84.0988 185.184 84.2408 185.326 84.1418ZM161.602 83.6858C160.903 83.4578 160.246 83.3718 160.561 84.3268C160.703 84.6258 161.202 84.7828 161.474 84.5838L161.602 83.6858ZM180.073 84.0138C179.517 84.0838 178.432 84.9678 178.717 85.6088C179.26 86.8198 181.344 85.6518 180.687 84.3128C180.53 84.0698 180.359 83.9718 180.073 84.0138ZM160.089 85.6508C159.318 85.8508 159.747 86.9608 160.389 86.7768C160.789 86.6618 160.817 85.4658 160.089 85.6508ZM161.888 86.4628C161.445 86.5338 161.017 87.4318 161.731 87.5598C162.602 87.7298 162.587 86.3348 161.888 86.4628ZM183.827 86.8048C183.485 86.9048 182.771 87.9448 182.957 88.2438C183.342 88.5428 184.456 88.9418 184.87 88.6568C185.226 88.3998 185.255 86.3768 183.827 86.8048ZM178.575 87.1048C177.961 87.3608 177.747 88.5718 178.561 88.5718C179.131 88.5718 179.388 87.1318 178.575 87.1038M188.424 88.1008C187.996 87.4308 186.611 88.6128 186.982 89.3828L188.224 89.2398C188.467 89.0548 188.567 88.3148 188.424 88.1008ZM161.26 89.0968C160.832 88.6838 160.275 88.9258 160.204 89.4958C160.047 90.6208 162.159 89.9808 161.26 89.0968ZM176.676 90.6908C175.877 90.5208 175.292 91.9308 176.133 92.1308L177.004 91.9878C176.705 91.5598 176.476 91.2178 176.676 90.6908ZM180.587 91.9728C180.744 91.6168 180.787 91.3178 180.516 91.0048C179.56 90.1648 179.145 92.2728 180.587 91.9728ZM187.253 90.8768C187.082 90.9338 186.954 91.0758 186.968 91.2608C186.968 91.6168 187.553 91.9448 187.881 91.9878C189.023 91.5878 188.238 90.5488 187.253 90.8768ZM185.812 94.0968C186.497 92.3298 184.684 92.1868 183.328 92.3148C182.957 92.6428 182.814 93.1418 182.885 93.6258C184.056 93.3408 184.67 94.3668 185.812 94.0968ZM187.025 93.3398C186.568 93.7958 186.711 94.8498 187.582 94.9358C189.28 95.0928 188.139 92.2288 187.025 93.3398ZM181.401 94.2518L181.272 93.3688L180.487 93.5108C180.245 93.8108 180.33 94.1098 180.459 94.4368L181.401 94.2668V94.2518ZM161.288 93.4538L160.646 93.7108L160.789 94.3508L161.445 94.4228L161.274 93.4398L161.288 93.4538ZM159.09 93.6248C158.548 93.7818 158.919 94.9498 159.575 94.7648C160.118 94.6078 159.747 93.4398 159.09 93.6248ZM178.189 95.2068C178.86 95.8758 179.931 94.3088 178.803 94.0098C178.246 93.8668 177.775 94.8068 178.189 95.2068ZM183.827 95.1208C183.328 95.2348 182.871 95.7478 182.914 96.2748C183.085 96.9728 185.298 97.2288 184.984 95.6908C184.855 95.0498 184.413 94.9788 183.827 95.1068V95.1208ZM182.885 98.8538C183.057 98.4258 183.271 97.3718 182.5 97.5708C181.729 97.9708 182.029 98.9248 182.885 98.8538ZM161.103 99.4798C161.717 99.0958 160.632 97.7998 160.161 98.5398C159.804 99.1098 160.532 99.8218 161.103 99.4798ZM179.374 98.3548C178.946 98.4838 179.046 99.5228 179.702 99.3378C180.131 99.2098 180.031 98.1698 179.374 98.3548ZM183.656 98.7108C183.043 98.9248 183.2 99.8798 183.87 100.093C185.041 100.464 184.984 98.2698 183.656 98.7108ZM180.288 99.1958C179.788 100.15 180.373 100.991 181.429 100.748C181.915 99.9218 181.215 99.0248 180.288 99.1958ZM177.161 100.806C177.133 101.261 177.119 101.732 177.604 101.917C178.289 102.116 178.461 101.532 178.232 100.948L177.161 100.791V100.806ZM183.827 100.991C183.342 101.119 182.529 102.344 183.171 102.729C184.27 103.384 185.169 102.031 184.47 101.105C184.284 100.948 184.07 100.919 183.842 100.977L183.827 100.991ZM181.215 102.145C180.416 102.43 179.845 103.512 180.702 104.068C182.2 105.037 182.914 102.401 181.215 102.145ZM178.461 105.692C178.617 104.054 177.19 103.869 177.518 105.692H178.461ZM79.8101 70.1078C79.8811 70.4778 79.6531 71.0048 79.9671 71.3328C80.3811 71.7598 80.7811 71.4048 81.1091 71.4048C81.9521 71.4048 82.0231 71.6888 82.7511 71.8888C82.9221 71.9308 83.0931 71.9458 83.2361 72.0448C83.1931 72.1588 83.2361 72.6578 83.2361 72.8568V73.0138C83.1081 73.0998 83.2361 73.1428 83.2361 73.1708C83.3791 74.1538 83.9931 73.9828 84.7061 73.4978C84.7351 73.5978 85.1341 73.6408 85.0201 73.8978C84.4501 74.1968 84.3071 74.9798 84.0501 75.2938C83.8931 75.4938 83.3651 75.5938 83.2651 75.8918C83.1791 76.1338 83.1791 77.0598 83.3071 77.2598C83.8931 77.7008 84.4771 77.6158 84.9491 77.0748C85.1491 76.8458 85.1491 76.5048 85.2061 76.4338C85.2061 76.4188 85.4201 76.4618 85.4771 76.3908C85.6341 76.1628 85.5911 75.7348 85.9771 75.6498L87.3331 75.8068C87.3331 75.8068 87.4181 76.7608 87.5181 76.9888C87.6041 77.1738 87.8321 77.0888 87.8321 77.1028C87.9471 77.3028 87.5621 77.8578 88.6461 77.5868C89.0601 77.4868 89.2601 76.4768 89.5601 76.1338C90.0634 75.6572 90.5772 75.1917 91.1011 74.7378C91.4151 74.5528 91.9151 74.7378 92.3011 74.6238C92.6141 74.5388 92.8001 74.0398 93.3281 74.0108C94.1701 73.9548 94.6131 74.6948 94.9981 74.7948C95.3981 74.8948 95.7401 74.5248 96.1831 74.7378C96.4681 74.8658 96.6111 75.3508 96.8531 75.5498C97.3681 75.9778 97.9671 76.0198 98.3811 76.6328C98.7951 77.2458 99.1661 78.4428 99.5511 79.0548C100.637 80.7648 100.594 79.9668 101.136 82.2178C101.35 83.1008 101.836 83.3148 101.293 84.5108L102.863 88.6708C102.949 89.3268 101.993 89.8398 101.95 90.4518C101.907 90.9508 102.977 91.6918 102.649 92.6178C102.563 92.8598 102.164 93.1448 102.107 93.4008C102.036 93.7288 102.307 94.1138 102.207 94.6258C102.078 95.2668 101.122 96.5498 101.093 96.6638C101.008 97.0058 101.207 97.4468 101.022 97.8608C100.836 98.2448 99.8221 98.5308 99.5521 98.8438C99.2661 99.1708 99.0521 100.368 98.7671 100.596C98.3951 100.909 97.4111 100.71 96.9541 100.838C96.3541 101.009 96.2971 102.063 94.9691 101.322C94.4561 101.779 94.0561 102.662 94.0561 103.346C94.0561 103.73 94.2271 104.086 94.2271 104.471C94.2271 105.354 94.3561 106.979 94.2271 107.733C94.0701 108.546 92.9141 108.531 92.7571 107.733C92.5001 106.366 93.3421 102.633 92.6711 101.779L92.5011 101.636C91.0011 102.035 89.2171 100.724 88.0611 99.8408C87.8891 99.7978 86.4621 100.781 86.3051 100.98C85.9911 101.365 86.0911 101.807 85.6201 102.249C84.9771 102.861 84.2501 102.619 83.9211 102.833C83.6931 102.989 83.7361 103.816 82.9931 104.186C81.7371 104.813 81.4951 103.63 80.9231 103.716C80.5241 104.186 79.4391 105.298 78.8681 105.454C78.4401 105.582 78.2831 105.155 77.8831 105.198C77.5691 106.679 78.5111 113.817 77.8971 114.6C77.5401 115.042 76.4271 114.829 75.9991 114.515L76.2561 105.041C75.0421 105.725 73.3861 105.084 74.5721 103.744L75.4421 103.887C75.3421 102.249 76.1121 103.06 76.7981 102.89C77.6401 102.662 77.2981 100.254 76.3701 100.952C76.2271 101.066 76.2701 101.266 76.2561 101.266C75.7421 101.579 75.3421 99.6978 76.3131 99.2708C77.0831 98.9288 77.0551 100.112 77.5691 100.368C77.9551 100.553 78.3541 100.368 78.7111 100.539C79.0681 100.71 79.3811 102.021 80.1101 102.092C81.5521 102.249 82.2511 98.7438 80.4381 98.8148C80.2101 98.8148 79.9531 98.9998 79.7811 98.9858C79.7391 98.9858 79.5251 98.4158 79.1251 98.5018L78.8681 99.3138C77.7261 98.9288 77.0551 99.1858 76.6561 97.8458C76.1851 96.2508 79.3101 97.4758 78.8681 95.5518H77.8831L77.9121 94.7548L78.8401 94.1278C78.8821 93.5718 78.4971 92.8318 77.8831 93.0018C76.9701 93.2588 76.4561 94.8968 75.4571 93.4868C75.8421 91.9908 76.2561 92.7168 76.8131 92.5888C77.0271 92.5318 77.0701 92.1478 77.2411 92.0338C77.7981 91.6768 78.5831 92.4178 78.7111 92.2758V91.7908L79.5961 91.9618C80.1381 91.2918 79.7391 90.5658 78.8821 90.6368L78.7251 91.1218C78.9391 90.3808 78.4251 90.5088 78.2251 90.2388C78.0551 89.9958 77.8551 89.4118 77.6401 89.3408C77.0401 89.1708 76.7981 90.4808 75.9421 90.0678C74.6421 89.4408 77.0701 89.0418 77.1981 88.9558C77.4121 88.8278 77.8401 88.0018 77.7401 87.6878L78.3971 87.7878C78.9251 86.4778 78.7971 86.8478 79.9531 86.7188C80.6531 86.6488 80.7951 86.1488 80.1101 85.8928L79.7101 86.2208L79.8671 85.2378C78.8111 85.0378 78.1971 86.2068 77.2411 85.4938C76.3711 84.8538 76.0991 83.5138 76.3131 82.5028C76.7411 81.9898 78.1261 82.1028 78.4111 81.9038C78.7681 81.6618 78.5251 80.1518 78.1971 79.8948C77.8121 79.5958 75.6141 79.3818 75.7851 78.4708C75.9281 77.7008 77.4121 78.8408 77.6691 79.0408C78.1971 79.0108 77.2271 76.6188 78.4541 76.9458C78.9251 77.0748 78.9821 78.0288 79.5101 76.4758C80.1671 74.5658 79.2251 75.2938 78.1541 75.3078C77.8971 75.3078 76.6411 75.2648 76.5991 75.0508C76.9411 73.6268 77.6831 74.4388 78.4691 74.3248C79.5681 74.1538 78.7691 72.7148 77.9121 73.1848L77.7121 71.9028C77.3121 71.9028 76.5981 71.6888 76.7551 71.1478C76.9121 70.6058 77.7691 71.1908 78.2251 70.9768C78.8111 70.7198 78.8821 69.5378 79.5391 69.2528C79.5671 69.4378 79.8241 69.8658 79.8671 70.0648L79.8101 70.1078ZM81.5661 72.5868C80.9661 72.8428 80.4241 74.1398 81.2381 74.3388C82.0231 74.4238 82.5791 73.3988 82.1231 72.8008L81.5661 72.5868ZM96.1691 77.3018C96.0691 76.5898 95.5831 76.2048 94.8691 76.1768L94.6131 76.6468C94.9831 75.9198 93.8421 74.8368 93.1711 75.0508C92.8711 75.1368 92.7431 75.5638 92.4571 75.6498C92.0871 75.7638 91.5871 75.5638 91.2581 75.7638C90.7581 76.1843 90.2679 76.6164 89.7881 77.0598C89.2311 77.7008 88.9601 78.9978 88.3181 79.6808C88.2031 80.4218 88.9031 80.4798 88.9881 80.9928C89.0461 81.4058 88.7751 81.8048 88.8461 82.0898C88.9601 82.5598 90.1161 83.2718 89.5021 84.2258C90.5871 84.8818 90.0881 84.9248 90.1451 85.6938C90.1881 86.1928 90.3731 86.6048 90.3021 87.1898C90.2591 87.5308 89.9881 87.7738 90.0021 87.9728C90.0021 88.2438 90.4451 88.6568 90.4161 89.1128C90.3871 89.5688 89.9461 89.9678 89.9731 90.4378C90.0031 91.0788 90.8021 91.5488 90.8021 92.0908C90.8021 92.5748 90.3731 92.7308 90.2021 93.1448C90.0311 93.5578 90.0731 94.0708 89.8311 94.5698C89.6881 94.8828 89.2881 95.1398 89.2171 95.4238C89.1171 95.7658 89.4031 96.3638 89.2741 96.9488C89.1461 97.5328 88.0611 98.2448 88.3321 99.2428C88.4461 99.6128 88.9741 99.4278 89.3021 99.5988C90.1451 100.04 89.5171 100.169 91.1441 100.525C91.3871 100.582 91.6011 100.81 91.8441 100.824C91.9441 100.824 93.3281 100.169 93.3991 100.097C93.5561 99.9268 93.7711 99.1998 93.7281 98.9718C93.6991 98.8148 92.9571 98.6868 93.1281 98.0318C93.3001 97.3758 93.8561 97.7038 94.1981 97.2908C94.4981 96.3508 91.6011 95.9508 93.7131 94.6118L94.1281 95.4238L94.8561 94.3558C96.8821 94.7828 95.6971 93.2158 95.1121 92.3328L94.2121 93.6288C94.4701 92.5608 93.8141 92.9168 93.4851 92.4748C92.8571 91.6348 93.1141 90.2668 93.5851 89.3978C94.3851 89.2128 95.0411 89.9958 95.8261 89.5118L95.6691 87.8308C95.4411 87.4028 94.8691 87.6888 94.5421 87.4888C94.3851 87.3888 94.3271 87.0468 94.1421 86.9048C94.0851 86.8618 93.0421 86.4208 92.9851 86.4208C92.6431 86.4208 92.4291 87.0758 91.9291 86.9048V86.1778L93.6421 86.0928L93.7281 85.7228C93.9981 85.2808 94.1281 85.9498 94.3701 86.1778C95.2981 87.0328 96.4541 86.0498 96.0261 85.3948C95.9121 85.2238 95.6261 85.1668 95.4551 84.9528C94.9691 84.3548 95.1841 83.7128 93.9991 84.1268L93.8131 83.9838L93.4131 81.6898C93.8421 81.5338 94.1561 81.9748 94.4701 82.0038C95.6551 82.1038 96.2691 81.2198 96.0121 80.0938L95.4831 79.9238C95.1981 80.2238 95.0691 80.6078 94.5701 80.5648C95.1121 79.2828 93.1141 79.0548 93.9851 78.1148C94.5271 77.5298 94.7271 78.0428 95.1411 78.1148C96.1401 78.2998 95.8411 77.8008 96.1971 77.3028C96.2401 77.6158 96.1401 77.9578 96.2111 78.2568C98.3241 79.1688 97.6241 75.2658 96.1971 77.3028L96.1691 77.3018ZM82.7221 76.0338C82.6081 75.9338 81.7371 75.7638 81.6371 75.8488C81.2371 76.9458 81.1671 77.7588 82.3941 78.2708C83.0501 78.3278 83.1081 76.3618 82.7361 76.0488L82.7221 76.0338ZM86.1911 77.1308C85.3061 76.9608 84.9491 77.4738 85.2211 78.2568L86.1201 78.1148L86.1901 77.1168L86.1911 77.1308ZM82.2941 79.4388L81.9661 80.6078C82.5511 81.4058 83.4931 80.8498 84.3211 80.8638C85.1061 80.8928 85.9481 81.4058 86.7481 81.1638C87.2901 80.9928 87.9181 79.3538 87.0901 79.0978C86.6621 79.0548 86.3761 79.6248 86.0911 79.6958C85.2771 79.9238 85.0061 78.6848 84.3211 78.4138L83.1791 80.2088L82.9511 79.4678L82.3081 79.4248L82.2941 79.4388ZM97.7961 79.2688C97.4671 79.0258 96.5401 79.5818 96.8961 80.0808C97.4531 80.8498 98.3381 79.6678 97.7961 79.2688ZM79.4391 79.7668C78.6251 79.8388 78.7821 80.7218 79.4111 80.7218C80.1101 80.7218 80.0811 79.7098 79.4391 79.7668ZM98.5091 81.3338C100.665 82.2458 99.5941 79.1538 98.6241 80.0088C98.3241 80.4648 98.1661 80.8488 98.5091 81.3338ZM97.0121 82.6588C97.5971 83.1998 98.3821 82.1178 98.0681 81.6898L97.1831 81.5618L97.0121 82.6588ZM84.3931 84.1548C82.7661 83.4428 82.3381 86.1498 83.7801 85.9208C84.2651 85.8508 85.6351 83.8988 85.6921 83.4008C85.7921 82.6878 85.2781 81.9328 84.5501 82.2748C83.5231 82.7448 84.5221 84.0118 84.3801 84.1548H84.3931ZM81.7671 83.4848C82.2371 83.1438 81.6101 82.2598 80.9671 82.5168C80.7531 83.0578 81.2531 83.8548 81.7671 83.4848ZM98.7531 82.7168C96.8411 83.1168 98.9531 86.0648 99.7811 83.2578C99.6811 82.7178 99.2531 82.6168 98.7531 82.7168ZM77.3991 83.0598C76.8571 83.6008 77.2991 85.0258 78.2271 84.7978C78.6841 84.6558 78.8121 83.3308 78.5841 83.0028C78.3981 82.7328 77.5991 82.8468 77.3841 83.0458L77.3991 83.0598ZM96.1271 83.2018C95.4701 83.3728 95.5271 84.5988 96.4121 84.3138C96.8551 84.1708 96.8261 83.0308 96.1271 83.2018ZM87.1341 84.0158C85.8491 84.2578 85.9781 86.0958 87.5621 85.5968C88.2761 85.1268 88.1471 83.8168 87.1341 84.0158ZM100.081 85.4968C99.4671 85.6258 98.6961 84.8138 98.3961 85.4688C97.9961 86.3238 98.8391 87.4778 99.6661 87.2358C100.366 87.0358 100.409 86.0528 100.081 85.4968ZM81.3101 86.4668C80.9391 87.0638 81.7671 87.8478 82.1951 87.2638C82.5661 86.7658 81.6521 85.9248 81.3101 86.4668ZM85.9921 86.4788C85.4211 85.9088 84.4931 86.6788 85.0361 87.3488C85.5781 88.0178 86.6351 87.1198 85.9921 86.4788ZM84.0511 88.2168C84.4361 87.9748 84.2081 86.5928 83.3941 87.1628C82.9091 87.5048 83.3941 88.6158 84.0511 88.2168ZM79.0111 88.3878C79.4261 88.9578 80.5391 87.9328 79.6541 87.4908C79.1841 87.2628 78.8251 88.1178 79.0111 88.3878ZM100.282 88.3878C100.995 88.8298 101.409 87.5198 100.838 87.4198C100.31 87.3338 99.8961 88.1318 100.282 88.3878ZM87.8341 88.7298L87.6771 87.8188C87.2071 87.4768 86.6211 88.2458 87.0351 88.7018L87.8341 88.7298ZM97.7981 88.4168C97.7981 88.4168 97.0561 88.1888 96.9981 88.2318V89.2148L97.7411 89.0578C97.8261 88.9298 97.8691 88.5308 97.7981 88.4168ZM98.7261 88.5738C98.1551 88.7588 98.5261 89.8418 99.1681 89.6848C99.9531 89.4848 99.5391 88.3168 98.7261 88.5738ZM81.0961 90.0118L81.0541 89.0438L80.3121 88.9718L80.0261 89.4998L80.2261 90.0548C80.4691 90.3398 80.8261 90.1548 81.0961 90.0268V90.0118ZM85.8501 89.5708C84.8801 89.0718 84.2511 89.6988 84.7511 90.6678L85.8791 90.6968L85.8501 89.5708ZM88.7621 90.2258C88.1771 90.2688 87.8201 91.3798 88.1481 91.7508L88.7191 91.9928C88.8911 91.9498 89.5041 90.6528 89.1471 90.4398C89.0341 90.3118 88.9341 90.2118 88.7621 90.2258ZM98.5831 90.5538C98.0551 90.6958 97.9691 91.5088 98.4691 91.7648C99.5691 92.3198 99.8251 90.2118 98.5831 90.5538ZM82.2391 91.6508C82.4961 91.1808 82.5531 90.6388 81.8541 90.6968L81.6111 91.6798L82.2391 91.6508ZM100.096 92.4908L101.01 92.3348L100.924 91.5798H100.253L100.096 92.4908ZM87.5061 93.1318C87.5351 92.7048 87.5921 91.9918 87.0631 91.8508C85.8931 91.5228 86.2641 93.4888 87.5061 93.1318ZM83.8381 92.0068C83.1671 92.2208 83.6811 93.6738 84.5661 93.0608C85.0361 92.7478 84.5371 91.7788 83.8381 92.0068ZM81.0831 93.1748C80.9831 93.0748 80.7261 92.9898 80.5831 93.0188L79.8981 93.4748C79.4561 94.3858 80.5121 95.2978 81.2111 94.4568C81.3681 94.1438 81.3251 93.4318 81.0831 93.1898V93.1748ZM99.5531 93.0048C98.6831 93.0748 98.8401 94.2858 99.5251 94.2858C100.282 94.2858 100.253 92.9478 99.5541 93.0038M98.2561 94.3278C97.4561 93.4018 97.0431 94.5558 97.5561 94.9408C98.1131 95.3688 98.7841 94.9408 98.2561 94.3278ZM86.4651 95.7818C84.0251 97.3198 87.4071 98.7298 87.0931 96.0658L86.4651 95.7818ZM96.9991 95.7528C96.4991 96.8778 97.0711 97.7758 98.3131 97.4768C98.8981 97.0918 97.7421 95.4968 96.9991 95.7528ZM99.9261 96.0948C99.3261 95.6818 98.8261 96.7358 99.3121 97.0348C100.026 97.4768 100.225 96.3088 99.9261 96.0948ZM82.4111 97.8468C82.7251 95.8948 81.0411 95.9518 81.3111 97.8468C81.6831 98.0468 82.0411 98.0468 82.4111 97.8468ZM95.9581 96.4228C95.3441 96.5788 95.1011 97.8038 96.0861 97.7188C96.9861 97.6478 96.7291 96.2228 95.9581 96.4228ZM95.1441 98.3888C93.6021 98.7588 96.2571 101.024 96.4861 99.3858C96.5571 98.8298 95.6291 98.2748 95.1441 98.3888ZM82.8681 98.8728C81.8551 99.2008 83.3961 101.452 83.7241 99.2998C83.5961 98.9728 83.2241 98.7598 82.8681 98.8728ZM134.295 91.3358C134.467 91.5208 134.253 91.7348 134.096 91.8768C133.225 92.6608 129.128 93.2588 127.815 93.4438C123.004 94.1138 118.065 94.2138 113.355 95.4238C113.626 95.8798 114.454 95.9378 114.954 96.0368C119.393 96.8068 124.146 96.9628 128.571 97.9468C135.266 99.4418 128.8 100.91 126.145 101.423C121.862 102.249 116.666 102.306 112.584 103.403C112.17 103.517 110.857 103.745 111.285 104.414C111.585 104.87 114.154 105.098 112.441 106.537C111.528 107.292 107.745 108.104 106.346 108.617C105.332 108.987 101.821 110.141 102.278 111.609C102.977 113.803 109.215 114.928 106.789 118.22C104.376 121.51 92.8141 124.559 88.6321 126.226C83.4361 128.306 79.2111 130.543 77.5121 136.185C77.4401 136.413 77.6121 136.47 77.1831 136.427C76.3271 135.615 78.3971 131.982 79.0111 131.141C83.4501 125.058 95.9971 122.935 102.763 119.744C104.105 119.103 107.688 117.336 105.732 115.527C104.719 114.601 102.549 113.703 101.778 112.535C100.022 109.885 104.99 108.332 106.675 107.805C107.716 107.477 111.885 106.622 112.284 105.896V105.397L110.628 104.585C109.986 103.546 113.341 102.691 113.983 102.534C117.751 101.693 121.948 101.508 125.802 100.782C127.33 100.482 128.843 100.098 130.356 99.6848C130.898 99.0428 128.771 98.6728 128.429 98.5878C124.503 97.7038 120.52 97.4618 116.552 96.8918C115.867 96.7918 111.514 96.3078 112.927 94.9398C113.398 94.4838 115.938 94.0998 116.724 93.9858C121.748 93.2448 127.857 93.3158 132.654 91.9338C132.968 91.8488 134.153 91.2218 134.281 91.3638L134.295 91.3358Z" fill="#3A4951"/>
<path d="M79.4821 69.2968C79.4391 69.0268 79.9821 68.4698 79.0681 68.4698C78.6971 68.4698 78.5111 69.5248 77.8401 69.2968C77.7971 68.7698 78.2251 68.4848 78.1681 67.9288C78.1401 67.7008 77.4981 66.6888 77.4121 66.6748C76.6551 66.5468 76.3841 67.7008 75.9271 67.8008L74.4281 67.6868C74.3141 68.1148 74.1001 68.7558 73.6861 68.9828C73.2151 69.2398 72.7581 69.0258 72.4441 69.2118C72.1741 69.3678 72.1301 70.0518 71.9591 70.3218C71.2591 71.4338 70.2181 71.6328 69.5041 72.4878C69.2321 72.8018 69.3751 73.2578 69.1611 73.6138C68.9191 73.9838 68.3481 73.9698 68.1191 74.3688C67.8191 74.8818 67.8621 75.9928 67.6191 76.4768C67.4191 76.8618 66.7061 76.8908 66.5921 77.2468C66.4631 77.6458 66.6631 78.2158 66.5351 78.6568C66.4491 78.9708 65.9641 79.1558 65.9071 79.6828C65.8781 80.0248 66.0921 80.3228 66.0351 80.6088C65.9781 80.9078 65.2351 81.8058 65.1211 82.4748C65.0071 83.1448 65.1791 83.8148 65.0791 84.3848C64.9931 84.8688 64.3221 85.4668 64.2651 86.0368C64.2081 86.6778 64.7361 86.8628 64.7361 87.3188C64.7361 87.8318 64.1661 88.3728 64.2511 88.9428C64.3081 89.3278 64.7651 89.4128 64.7651 89.9258C64.7651 90.6238 63.9511 91.1658 64.0941 92.0348C64.1371 92.2768 64.3941 92.4478 64.3791 92.6748C64.3791 93.0028 63.9511 93.4878 64.0791 93.9868L65.0501 94.4428C64.9071 95.4678 64.9221 96.3798 65.3211 97.3628C65.6351 98.1468 66.4911 97.9188 66.7341 98.2888C67.0061 98.7018 66.4491 99.2438 67.0491 99.8988C67.4771 100.369 68.2191 100.298 68.5191 100.554C68.7761 100.768 68.7621 101.367 69.0041 101.694C69.2751 102.064 69.7041 102.036 69.9041 102.264C70.0611 102.449 70.0321 102.834 70.3171 102.991C70.9461 103.318 72.7731 102.193 72.7731 104.373C72.0731 104.486 71.8881 104.273 71.5451 103.717C70.9741 104.785 69.0751 103.774 68.5191 103.147C68.1621 102.748 67.9621 102.008 67.5341 101.509C67.0491 100.939 66.2781 100.455 65.8351 99.7848C65.4501 99.2148 65.3351 98.5028 65.0651 98.1038C64.8501 97.7618 64.1081 97.5338 63.9651 97.0778C63.7651 96.3798 64.1801 95.6108 64.0651 95.1828C63.9801 94.8548 63.4091 94.6418 63.3091 94.2998C63.1091 93.6588 63.4941 92.8898 63.4091 92.5618C63.2951 92.1198 62.5391 92.1628 63.2661 91.2648C63.4091 91.0798 63.6661 91.0228 63.8361 90.8098C64.3791 90.1108 63.7941 90.1258 63.5231 89.6558C62.9231 88.6008 63.7091 88.3308 63.6091 87.4608C63.5661 87.0768 62.9801 87.3048 63.0951 86.1508C63.1661 85.3528 63.9651 84.5978 64.0511 83.9848C64.1511 83.3728 63.8941 82.8748 64.1511 81.9768C64.3941 81.1358 64.5791 80.3668 64.8071 79.5268C64.9371 79.0698 65.4361 78.7138 65.5211 78.4428C65.6641 77.9298 65.4361 77.2748 65.7501 76.7198C65.9781 76.3058 66.6061 76.2348 66.8491 75.8498C67.1631 75.3658 67.1201 74.4538 67.3911 73.9408C67.6201 73.5138 68.0621 73.4848 68.2481 73.1718C68.4341 72.8588 68.4051 72.3598 68.5481 72.0038C68.9901 70.9208 70.0611 70.8348 70.7881 69.9938C71.2031 69.5238 71.5881 68.4138 72.1021 68.1998C72.4721 68.0428 72.8721 68.1998 73.2441 68.0288C73.9861 67.7008 74.1571 65.6928 76.0131 66.6328C76.1411 65.8778 76.7411 65.2788 77.5401 65.4928C77.6971 65.5358 78.4111 67.0028 78.7541 67.1168C79.1821 67.2598 79.9381 66.5758 80.8241 66.8468C81.3091 66.9888 81.7801 68.2428 82.3651 68.4138C82.7651 68.5278 83.2361 68.3998 83.6351 68.4418C93.9281 69.8238 100.122 73.0438 109.244 77.0898L108.759 77.5738C100.708 74.0688 92.7851 70.1518 83.8931 69.2538C84.0931 69.6098 84.4631 69.8808 84.5921 70.2798C84.6921 70.5928 84.5491 70.8348 84.5921 70.9498C84.6631 71.2198 85.1631 71.0198 85.0491 71.6898C84.9771 72.1318 84.5921 72.6018 84.8921 73.1578C85.5771 73.2858 85.3061 72.2878 85.8771 72.3458C86.0771 72.8728 86.6191 73.6138 86.6621 73.9408C86.7191 74.2978 86.4901 74.5828 86.5481 74.8528C86.6621 75.3658 87.6181 75.8218 87.7471 76.1068C87.8751 76.3918 87.8041 77.0468 87.8321 77.0898C87.8601 77.1328 88.6031 77.1038 88.6461 77.5738C87.5611 77.8308 87.9461 77.2888 87.8321 77.0898C87.8321 77.0758 87.5891 77.1608 87.5181 76.9758C87.4181 76.7478 87.3901 75.8358 87.3321 75.7928L85.9771 75.6368C85.5911 75.7218 85.6481 76.1638 85.4771 76.3768C85.4201 76.4628 85.2201 76.4068 85.2061 76.4198C85.3631 75.6368 84.6921 75.4368 84.0641 75.2798C84.3211 74.9528 84.4641 74.1828 85.0341 73.8848C85.1491 73.6418 84.7491 73.5848 84.7201 73.4848C84.6641 73.2718 84.8491 73.0298 84.6201 72.8148C84.2631 72.4748 83.6211 72.5018 83.2501 72.8298C83.2501 72.6298 83.2071 72.1318 83.2501 72.0178C83.2791 71.9608 83.7071 71.8608 83.7501 71.4338C83.8931 70.0378 81.5521 70.2938 82.7651 71.8468C82.0371 71.6468 81.9651 71.3628 81.1231 71.3628C81.3371 70.7208 81.7371 70.0378 81.1951 69.4108C80.6521 68.7838 79.6251 69.1398 79.8101 70.0508C79.7671 69.8528 79.5101 69.4248 79.4821 69.2398V69.2968ZM86.3621 73.8698C86.0621 73.8268 85.8771 73.8698 85.7051 74.1118V74.3548H86.3621V73.8698ZM142.803 97.7038C143.859 97.9038 146.885 98.2168 147.171 99.4568C147.428 100.554 146.871 101.067 146.057 101.693C145.358 102.221 141.989 103.489 142.389 104.4C142.703 105.127 147.571 106.709 148.684 107.435C154.508 111.239 143.845 114.174 141.747 115.826C139.691 117.436 141.975 118.177 143.359 118.79C150.597 122.009 158.776 122.579 165.999 125.913C170.038 127.794 174.449 131.255 173.735 136.228C173.493 136.484 173.45 136.199 173.407 135.985C173.122 134.034 173.008 133.036 171.766 131.412C166.841 125.015 152.538 123.363 145.016 120.556C143.674 120.057 138.064 117.964 140.105 115.812C141.804 114.046 145.829 113.091 147.97 111.567C153.252 107.834 142.603 106.552 141.747 104.699C140.876 102.79 145.244 101.679 146.243 100.696C147.956 99.0008 143.388 98.2458 142.318 98.0038L142.803 97.6758V97.7038ZM105.332 101.637C105.332 101.637 105.061 101.608 104.918 101.48C104.762 101.323 104.491 100.967 104.348 100.91C103.82 100.682 103.149 100.81 102.563 100.24C102.235 99.9268 101.379 98.2748 102.535 98.7158C102.62 99.3428 102.734 99.7988 103.334 100.126C104.062 100.526 104.805 100.297 105.547 100.639L105.975 100.098L105.332 99.3428L106.075 99.6558L106.46 98.9438C106.089 98.4448 105.832 98.0318 105.19 98.3458L105.018 97.5328C105.361 97.5188 105.646 97.7468 106.003 97.6328C106.36 97.5188 106.403 97.1628 106.532 97.0918C106.76 96.9638 107.16 97.1348 107.288 96.7778C107.573 95.9948 106.889 96.2938 106.817 96.2228L106.989 95.7388C106.389 95.5818 106.246 96.2508 106.175 96.7218C105.19 96.0228 106.075 95.2398 106.175 94.3708C105.618 94.1138 105.29 94.0288 105.347 93.2878L106.16 93.7718C106.032 93.2588 106.289 92.6318 106.275 92.1908C106.275 91.9628 106.046 91.8488 106.032 91.6068C106.032 91.3218 106.261 90.8658 106.146 90.5098C105.818 90.1958 103.777 91.4928 103.605 91.9768C102.792 91.4638 104.719 90.0678 105.147 89.9398C105.547 89.8258 106.617 89.8258 106.917 90.0678C107.046 90.1818 107.188 90.7378 107.374 90.9938C107.816 91.5788 108.145 92.1478 108.516 92.6328C108.701 92.8888 109.044 92.9458 109.215 93.2308C109.601 93.9008 109.215 94.3848 109.287 94.8118C109.315 94.9688 109.644 95.3248 109.743 95.6388C110.171 96.9918 109.672 97.0068 109.444 97.9748C109.272 98.7158 109.258 100.326 108.416 100.71C108.23 100.796 108.002 100.625 107.859 100.654C107.631 100.71 107.545 101.167 107.231 101.323C106.889 101.494 106.489 101.209 106.289 101.494C105.818 102.035 106.446 104.799 106.132 105.027L105.318 104.857V101.594L105.332 101.637ZM107.631 94.6128C109.201 94.8828 108.573 93.3168 107.788 93.8728L107.631 94.6128ZM172.908 65.7058C172.965 66.0618 172.765 66.0908 172.494 66.1898C171.523 66.5178 169.924 66.6458 168.825 66.9308C161.288 68.8828 156.235 71.4758 149.298 74.5528C145.401 76.2768 141.161 77.6028 136.922 78.1148C136.865 77.7018 137.25 77.6308 137.536 77.5018C139.292 76.6758 142.175 76.2768 144.159 75.6218C153.337 72.6298 161.402 66.7748 171.38 65.7198C171.894 65.6628 172.408 65.7198 172.908 65.7058ZM127.472 88.9568C127.472 88.9568 127.273 89.4408 126.773 89.2268L126.958 89.8538L130.427 90.6948L130.541 91.1938C130.313 91.4208 126.245 90.0678 125.745 89.6978C125.602 89.5978 125.431 89.5408 125.488 89.3278C125.645 88.6288 127.901 88.2578 128.557 88.1308C133.696 87.2048 139.077 87.6608 144.131 86.3778C143.06 85.3948 141.033 85.1098 139.591 84.8678C136.893 84.4118 133.867 84.1408 131.127 83.8418C129.828 83.6998 128.3 83.7418 127.044 83.5148C126.63 83.4428 126.587 83.2578 126.63 82.8588C130.755 83.0588 135.024 83.3578 139.092 84.0558C140.134 84.2258 144.701 84.9818 144.916 86.0648C145.116 87.1048 143.231 87.4178 142.532 87.5458C138.021 88.3438 131.64 87.6458 127.501 88.9558L127.472 88.9568ZM145.586 150.945C145.815 151.173 145.586 151.244 145.344 151.273C144.859 151.33 144.173 151.401 143.702 151.429C138.863 151.729 135.195 151.415 130.455 150.945C129.371 150.831 128.143 150.917 127.016 150.774C126.773 150.746 126.516 150.646 126.773 150.447C129.556 150.133 132.383 149.919 135.209 149.948C135.594 149.948 135.951 150.119 136.337 150.119C139.463 150.19 142.518 150.133 145.586 150.931V150.945ZM158.02 145.887C158.062 146.329 158.019 146.144 157.777 146.215C155.422 146.785 152.481 146.3 150.083 146.215C146.814 146.101 143.345 146.101 140.105 145.716C139.948 145.702 138.792 145.531 139.206 145.232C139.734 145.303 140.234 145.089 140.747 145.061C144.016 144.847 148.612 144.876 151.881 145.061C153.923 145.175 155.978 145.659 158.005 145.887H158.02ZM110.9 150.617L110.486 151.102C106.204 151.543 102.007 151.543 97.7671 150.731C97.4671 150.674 96.8541 150.731 96.9821 150.29C101.622 149.72 106.289 149.948 110.886 150.617H110.9ZM130.042 128.079V128.406H128.4V128.734C124.989 129.005 119.607 129.104 116.324 128.306C116.01 128.235 115.353 128.192 115.482 127.765C115.739 127.508 120.663 127.58 121.463 127.594C124.289 127.637 127.244 127.722 130.042 128.093V128.079ZM114.825 140.986C116.966 141.043 119.079 141 121.206 140.986H122.761L126.444 141.47C126.487 141.869 126.444 141.727 126.216 141.813C125.103 142.211 122.533 142.297 121.277 142.297C120.806 142.297 120.421 142.14 119.978 142.126C117.723 142.055 115.524 141.941 113.298 141.613L113.026 141.157C113.616 141.022 114.221 140.965 114.825 140.986ZM109.258 77.1318C111.285 78.0288 113.455 78.9688 115.553 79.7528C118.123 80.7078 120.82 81.3628 123.376 82.3598L123.49 82.8588C118.222 81.8618 113.612 79.7388 108.759 77.6298L109.244 77.1458L109.258 77.1318ZM125.131 133.464C124.889 133.207 125.16 133.178 125.374 133.15C128.114 132.751 131.44 132.78 134.21 132.979C134.567 133.007 137.065 133.307 137.065 133.549C136.708 133.834 135.951 133.92 135.508 133.962C132.154 134.233 128.457 133.819 125.117 133.478L125.131 133.464ZM101.735 142.938C101.05 143.052 100.208 143.223 99.5231 143.265C98.4231 143.336 96.8251 143.422 95.7541 143.394C94.7841 143.379 92.0001 143.208 91.1871 142.923C90.9151 142.838 90.7161 142.81 90.7731 142.439L95.0981 142.111C96.9681 142.183 99.1521 142.154 100.979 142.453C101.264 142.496 101.621 142.624 101.721 142.938H101.735ZM124.318 156.344V156.829C120.949 156.942 117.495 157.313 114.169 156.587C114.14 156.287 114.369 156.259 114.583 156.188C115.111 156.017 116.567 155.874 117.181 155.846C119.567 155.704 121.961 155.871 124.304 156.344H124.318ZM94.8701 137.723C94.9121 138.165 94.8701 137.98 94.6271 138.051C92.1721 138.635 86.6771 138.151 83.9931 137.894C83.7071 137.866 83.4641 137.951 83.2651 137.638C83.4651 137.324 83.7071 137.41 83.9931 137.381C86.9331 137.111 90.2311 136.997 93.1571 137.381C93.7331 137.462 94.3047 137.572 94.8701 137.709V137.723ZM121.206 55.4198C121.591 55.8328 119.522 57.8558 119.165 58.1978C117.452 59.8508 115.539 61.3468 113.769 62.9278C113.64 63.0418 112.627 64.3238 112.384 64.0678C112.342 63.5978 112.684 63.2558 112.955 62.9278C114.354 61.1898 116.467 59.6078 118.108 58.1128C118.437 57.8128 120.906 55.0928 121.22 55.4198H121.206ZM129.228 137.723C129.342 138.108 128.942 138.165 128.643 138.193C126.088 138.492 123.19 138.35 120.635 138.051C120.007 137.98 119.365 137.851 118.751 137.723C118.808 137.424 119.079 137.424 119.322 137.395C122.619 137.039 125.959 137.267 129.228 137.723ZM118.922 146.372L113.598 146.543C112.57 146.287 111.528 146.458 110.5 146.372C110.172 146.343 108.088 146.23 108.459 145.717C111.785 145.261 115.196 145.46 118.522 145.873L118.936 146.358L118.922 146.372ZM112.042 137.723C112.27 137.952 112.042 138.023 111.799 138.051C110.443 138.208 109.073 138.194 107.702 138.208C106.96 138.222 106.489 138.222 105.732 138.208C104.391 138.179 103.063 138.108 101.721 138.037C101.65 137.595 101.807 137.752 102.078 137.666C104.976 136.726 109.044 137.282 112.028 137.709L112.042 137.723ZM117.281 124.332C117.409 124.745 116.924 124.73 116.667 124.773C113.997 125.143 109.715 125.172 107.046 124.83C106.76 124.788 106.489 124.788 106.475 124.417C110.058 123.804 113.669 124.061 117.281 124.332ZM168.497 137.225L168.254 137.553C165.157 137.738 162.045 137.881 158.962 137.339C158.662 137.283 158.22 137.311 158.348 136.898C161.702 136.67 165.185 136.485 168.497 137.225ZM157.363 133.807C157.734 134.177 156.307 134.291 156.135 134.305C155.493 134.348 147.856 134.305 147.871 133.892C147.956 133.393 149.284 133.351 149.741 133.322C150.825 133.251 156.792 133.265 157.349 133.821L157.363 133.807ZM126.773 121.07C126.316 121.554 125.075 121.682 124.404 121.725C123.604 121.782 117.538 121.654 117.281 121.398C117.238 121.013 117.281 121.141 117.509 121.056C117.923 120.899 119.008 120.771 119.479 120.742C121.848 120.6 124.418 120.785 126.773 121.084V121.07ZM102.392 133.308C99.0521 133.45 95.3411 133.835 92.0861 133.065C92.2721 132.795 92.5281 132.838 92.8141 132.809C95.1411 132.595 98.0241 132.51 100.351 132.652C100.565 132.652 102.92 132.866 102.392 133.308ZM152.295 127.109L147.456 127.437C146.329 127.195 145.158 127.28 144.03 127.109C143.788 127.067 143.531 127.109 143.459 126.782C145.187 126.426 147.171 126.212 148.941 126.283C149.526 126.312 151.582 126.483 152.01 126.654C152.238 126.739 152.338 126.867 152.281 127.109H152.295ZM146.728 137.724C146.857 138.194 146.157 138.194 145.843 138.223C143.203 138.394 140.49 138.166 137.892 137.809C137.892 137.411 138.192 137.453 138.463 137.396C139.648 137.197 146.057 137.04 146.728 137.724ZM108.773 129.718C108.516 130.116 107.517 130.174 107.06 130.216C104.719 130.387 101.907 130.273 99.6091 129.874C99.7511 129.518 100.508 129.447 100.851 129.404C102.806 129.19 105.105 129.134 107.046 129.39C107.617 129.461 108.202 129.604 108.759 129.718H108.773ZM145.101 130.529C145.144 130.757 145.044 130.928 144.83 130.985C144.13 131.199 142.032 131.284 141.233 131.284C140.676 131.284 136.608 131.028 136.436 130.857C136.394 130.43 136.422 130.587 136.679 130.544C138.278 130.245 141.104 130.102 142.731 130.216C143.502 130.273 144.302 130.615 145.101 130.544V130.529ZM129.057 109.629C129.471 109.985 128.143 110.113 128 110.128C125.146 110.341 122.262 109.829 119.407 109.957C119.264 109.529 120.107 109.415 120.378 109.373C123.118 108.959 126.302 109.373 129.057 109.629ZM138.549 125.144C136.179 125.529 132.554 125.814 130.27 125.002C130.042 124.916 129.999 125.044 130.042 124.66C132.525 124.503 135.266 124.289 137.736 124.731C138.007 124.773 138.449 124.831 138.549 125.144ZM121.377 132.339C121.62 132.595 121.349 132.624 121.135 132.652C119.593 132.88 118.665 132.709 117.209 132.652C115.525 132.595 113.869 132.652 112.213 132.253C115.139 131.47 118.379 131.954 121.377 132.339ZM155.408 139.676C155.936 140.131 153.58 140.317 153.366 140.331C151.739 140.431 150.126 140.274 148.527 140.003C148.327 139.832 148.542 139.718 148.727 139.633C150.426 138.935 153.58 139.462 155.394 139.676H155.408Z" fill="#3A4951"/>
<path d="M142.803 97.705L142.318 98.032C138.106 97.092 134.567 97.349 130.47 96.878C130.17 96.85 129.77 96.793 129.885 96.408C134.167 96.408 138.606 96.921 142.803 97.718V97.705ZM135.766 118.946C135.994 119.174 135.765 119.245 135.523 119.274C133.139 119.559 130.413 119.587 128.072 119.103C128.143 118.789 128.4 118.804 128.642 118.775C130.983 118.462 133.439 118.547 135.766 118.946ZM115.31 111.268C115.054 111.667 114.054 111.724 113.598 111.766C111.599 111.909 109.429 111.724 107.46 111.425C107.217 111.197 107.46 111.125 107.702 111.097C110.243 110.798 112.784 110.983 115.31 111.268ZM130.698 90.039C130.655 89.597 130.698 89.782 130.941 89.711C132.197 89.398 133.453 89.881 134.709 90.025C135.195 90.081 138.378 90.067 138.392 90.595C138.192 90.894 137.964 90.822 137.664 90.851C135.409 91.021 132.968 90.153 130.698 90.025V90.039ZM129.228 116.168C129.014 116.539 128.229 116.639 127.843 116.667C126.102 116.809 124.046 116.696 122.362 116.325C122.434 115.998 122.704 116.054 122.933 115.998C124.846 115.57 127.301 115.855 129.228 116.154V116.168ZM135.28 111.595C135.737 111.923 134.367 112.08 134.224 112.094C132.739 112.208 130.198 112.051 128.657 111.923C128.443 111.909 128.072 111.852 127.915 111.681L129.456 111.268L135.266 111.595H135.28ZM136.593 115.029C136.651 115.456 136.593 115.285 136.351 115.357C135.295 115.684 132.126 115.571 131.012 115.272C130.727 115.186 130.627 115.214 130.698 114.858C132.64 114.602 134.681 114.545 136.593 115.029ZM140.191 140.986C140.134 141.313 139.848 141.256 139.62 141.313C138.178 141.684 136.051 141.442 134.538 141.313C134.253 141.285 133.996 141.328 133.81 141.057C135.852 140.53 138.107 140.53 140.191 140.972V140.986ZM126.601 105.384C125.431 105.113 123.846 105.113 122.676 105.384C121.948 105.298 121.249 105.213 120.549 104.971C121.106 104.657 122.105 104.586 122.748 104.557C124.175 104.486 125.559 104.743 126.987 104.757C127.658 105.284 127.015 105.27 126.601 105.384ZM116.139 114.202C116.181 114.53 116.167 114.473 115.939 114.573C115.411 114.801 111.771 114.772 110.985 114.701C110.7 114.673 110.443 114.73 110.257 114.445C110.186 114.031 110.557 114.245 110.828 114.202C112.727 113.875 114.24 113.775 116.153 114.202H116.139ZM125.945 113.718L118.908 113.475C119.093 113.205 119.35 113.233 119.636 113.219C121.134 113.119 122.919 112.948 124.389 113.062C124.817 113.091 125.973 113.119 125.931 113.718H125.945ZM136.594 101.965C136.522 102.278 136.265 102.25 136.023 102.292C134.339 102.563 132.697 102.477 131.027 102.121C130.898 101.651 131.598 101.651 131.926 101.623C133.453 101.523 135.109 101.623 136.594 101.965ZM118.422 108.646C118.48 108.988 118.437 108.917 118.223 109.016C117.166 109.501 115.268 109.287 114.112 109.116C113.669 109.045 113.041 109.016 112.698 108.731C114.483 108.161 116.567 108.617 118.422 108.646ZM118.75 117.308C119.122 117.678 117.851 117.792 117.694 117.806C116.281 117.92 114.739 117.764 113.355 117.464C113.112 117.208 113.383 117.179 113.597 117.151C115.367 116.894 116.995 116.994 118.75 117.308ZM136.508 122.693C136.222 122.665 135.78 122.437 135.437 122.451C135.352 122.152 135.68 122.123 135.88 122.095C136.479 121.995 140.933 121.995 141.161 122.209C141.233 122.366 141.019 122.693 140.919 122.693C139.534 122.693 137.835 122.821 136.508 122.693ZM103.049 126.611C102.977 126.924 102.72 126.896 102.478 126.939C101.907 127.024 97.6532 127.309 97.6532 126.697C99.3372 125.956 101.321 126.298 103.049 126.611ZM165.713 132.823H161.045C160.874 132.823 160.332 132.495 159.975 132.652C159.975 132.467 160.118 132.424 160.261 132.367C161.145 132.054 164.4 132.025 165.285 132.339C165.556 132.438 165.756 132.452 165.699 132.823H165.713ZM134.624 108.162C135.066 108.504 133.696 108.647 133.567 108.661C132.268 108.76 130.969 108.504 129.713 108.247C129.713 107.877 129.999 107.863 130.284 107.834C131.683 107.678 133.225 108.119 134.624 108.176V108.162ZM131.512 103.588C129.77 103.859 128.015 103.788 126.273 103.588C126.316 103.403 126.544 103.189 126.716 103.132C127.33 102.961 130.27 103.061 130.941 103.26C131.169 103.318 131.455 103.275 131.512 103.588ZM73.3582 87.262C74.1582 87.005 73.8862 88.444 73.9282 88.8C74.0002 89.256 74.6572 89.541 73.8152 90.025C72.8732 89.955 72.8452 87.419 73.3442 87.262H73.3582ZM134.709 104.728C134.638 104.728 134.438 104.586 134.224 104.557C133.824 104.515 132.853 104.814 132.996 104.244C134.481 104.144 135.937 103.916 137.407 104.244C137.478 104.401 137.264 104.728 137.164 104.728C136.365 104.728 135.494 104.785 134.709 104.728ZM132.411 95.097C132.54 95.112 132.768 95.339 132.982 95.268V95.596H129.142C128.971 95.596 128.428 95.268 128.072 95.425V95.097C129.428 95.225 131.083 94.927 132.411 95.097ZM113.184 120.242V120.727C112.027 120.641 110.814 121.168 109.758 120.484C109.758 119.929 112.698 120.014 113.184 120.242ZM117.937 47.585C117.866 48.212 116.995 49.822 116.538 50.192C116.081 50.562 115.482 50.406 115.796 49.779C116.139 49.052 117.338 48.169 117.937 47.585ZM111.057 134.618H109.172L107.616 134.219C107.802 133.934 108.059 133.991 108.344 133.963C108.601 133.949 111.756 134.006 111.057 134.618ZM105.175 60.15C104.576 60.849 103.763 61.789 103.092 62.401C102.906 62.572 102.992 62.701 102.549 62.601C102.278 62.401 104.676 59.908 104.833 59.666L105.161 60.151L105.175 60.15ZM123.332 107.506C123.632 106.708 127.415 107.007 127.586 107.178C127.586 107.278 127.372 107.506 127.344 107.506H123.332ZM135.109 86.607C135.281 85.894 138.407 85.837 138.549 85.951C138.692 86.321 137.836 86.607 137.65 86.607H135.109ZM143.874 108.974C144.002 108.988 144.231 109.216 144.445 109.145V109.473H140.933L140.69 109.23L140.933 108.988C141.861 109.074 142.974 108.874 143.874 108.988V108.974ZM121.534 111.595C121.891 111.937 120.778 112.065 120.635 112.079C120.021 112.137 118.051 112.293 118.851 111.438L121.534 111.595ZM136.751 94.115H133.482C133.439 93.787 133.453 93.844 133.682 93.744C134.11 93.559 136.736 93.232 136.751 94.115ZM142.232 93.303C142.232 93.303 142.489 93.531 142.475 93.63C142.332 93.83 140.176 93.844 139.762 93.8C139.391 93.773 139.006 93.83 139.034 93.303C139.919 93.445 141.447 93.103 142.232 93.303ZM136.008 106.851C136.008 106.851 135.752 106.623 135.766 106.523C136.051 106.238 138.721 106.452 139.292 106.523C139.591 106.551 139.549 106.48 139.534 106.851C138.578 106.694 136.879 107.064 136.023 106.851H136.008ZM116.581 104.115C116.681 104.172 116.767 104.628 117.109 104.571C117.152 104.643 116.952 104.856 116.838 104.87C116.51 104.942 114.811 104.614 114.326 104.557C114.083 104.301 114.354 104.272 114.568 104.243C114.953 104.187 116.338 103.987 116.567 104.115H116.581ZM140.02 100.483C139.206 100.697 138.464 100.682 137.65 100.483C137.408 100.426 137.365 100.597 137.407 100.155C137.536 100.013 140.148 99.642 140.02 100.483ZM131.84 99.015C132.796 99.129 133.781 98.559 134.624 99.257C134.624 99.528 131.797 99.87 131.84 99.015ZM141.004 91.507C141.447 92.091 138.935 92.22 138.72 91.75C138.563 91.437 139.277 91.35 139.448 91.337C139.973 91.285 140.503 91.3429 141.004 91.507ZM121.206 140.986C119.079 141.001 116.966 141.043 114.825 140.986C115.967 141.172 117.28 140.815 118.336 140.815C119.221 140.815 120.249 141.157 121.206 140.986ZM74.0582 92.348C74.4432 92.562 74.6142 93.744 73.8582 93.773C73.1012 93.403 73.1152 91.807 74.0582 92.348ZM141.333 109.801C141.304 110.114 140.676 110.114 140.448 110.128C139.905 110.171 138.963 110.257 138.564 109.872C138.564 109.459 140.962 109.601 141.347 109.786L141.333 109.801ZM70.6322 77.973V78.742C70.0322 79.112 69.5612 78.813 69.3472 78.201C69.3472 77.588 70.3172 77.787 70.6322 77.987V77.973Z" fill="#3A4951"/>
<path d="M126.601 105.384C125.331 105.74 123.932 105.54 122.676 105.384C123.846 105.113 125.431 105.113 126.601 105.384ZM85.862 72.4019C85.292 72.3449 85.562 73.3419 84.878 73.2139C84.578 72.6579 84.963 72.1879 85.034 71.7459C85.762 71.3329 85.691 71.9739 85.848 72.4019H85.862ZM76.042 86.9339C75.285 87.1049 74.8 86.3219 75.214 85.6939C76.213 85.3389 76.07 86.2219 76.042 86.9339ZM76.698 96.4089C76.284 96.8359 75.356 95.1409 75.97 94.9559C76.898 94.6709 76.698 95.8239 76.698 96.4089ZM118.094 106.523L118.18 105.711C118.751 106.138 119.579 105.882 120.064 106.438C119.536 107.008 118.737 106.495 118.108 106.523H118.094ZM71.46 86.2799L71.63 87.7469H71.074C70.817 87.6899 70.66 86.5779 70.96 86.3499L71.46 86.2799ZM72.873 82.5319C73.786 82.2319 73.758 83.4289 73.173 83.8289C72.573 83.8139 72.359 82.7029 72.873 82.5319ZM130.042 128.078C130.199 128.093 132.012 127.936 131.512 128.406C130.477 128.536 129.439 128.645 128.4 128.734V128.406H130.042V128.078ZM67.677 92.1769C68.262 93.1169 66.535 93.7149 66.72 91.9919C66.778 91.9339 67.62 92.0769 67.677 92.1769ZM110.1 54.6219C110.4 54.1519 111.442 54.7929 110.985 55.4199C110.571 56.0039 109.715 55.2199 110.1 54.6219ZM74.986 81.3769C75.513 81.2209 76.013 82.1889 75.471 82.5169C74.914 82.6739 74.402 81.7469 74.986 81.3769ZM69.975 98.6729C69.19 99.1719 68.847 97.6759 69.604 97.5619C70.132 97.4759 70.274 98.4879 69.975 98.6729ZM75.4 72.0749C76.242 71.7749 76.213 73.2999 75.799 73.3849C75.242 73.4849 75.13 72.4599 75.4 72.0749ZM69.747 88.7289C70.275 88.5719 70.76 89.5549 70.232 89.8689C69.618 90.0389 69.248 88.8709 69.747 88.7289ZM67.149 85.4809C67.862 85.2529 68.119 86.0939 67.719 86.3789C67.006 86.8769 66.521 85.6809 67.149 85.4809ZM67.534 96.0799C66.82 96.3089 66.406 95.1119 66.963 94.9399C67.633 94.7419 67.577 95.7099 67.534 96.0799ZM73.101 95.4249C72.416 95.5389 72.245 94.8409 72.287 94.2849C73.03 94.2139 73.187 94.7979 73.101 95.4249ZM70.646 74.5249C70.732 75.0809 70.46 75.5939 69.832 75.5079L69.904 74.6819L70.646 74.5249ZM122.605 62.2729C122.761 62.3869 122.533 62.4859 122.433 62.5859L122.362 62.5149L122.605 62.2729Z" fill="#3A4951"/>
<path d="M104.847 59.6658C106.446 57.3008 103.748 59.0108 102.92 59.2958C101.893 59.6658 100.793 59.8358 99.7661 60.2358C98.9091 60.5778 97.4101 61.7168 96.7401 61.7888C96.4971 61.8168 96.2541 61.8888 96.3261 61.5458C97.1111 60.9758 97.7961 60.2638 98.6241 59.7658C99.3811 59.3098 100.394 59.0818 101.05 58.5968C101.593 58.1978 101.978 57.4718 102.535 56.9728C103.306 56.2748 105.047 55.3628 105.104 54.1668C105.118 53.7248 104.634 53.0548 104.819 52.4708C105.39 52.1148 107.117 53.3258 107.274 52.7128C107.345 52.4428 106.732 51.3458 106.66 50.8898C106.403 49.2508 107.431 48.3108 107.731 46.8008C107.874 46.0888 107.731 45.8318 107.032 46.2598C106.732 46.4448 105.404 47.7698 104.99 48.1398C102.635 50.3198 100.465 53.2698 98.0391 55.2498C96.6831 56.3598 95.9121 56.9588 94.5991 58.1838C92.9991 59.6658 90.6161 60.8478 88.5461 61.4608L88.4611 61.1328C89.5311 60.2498 93.0851 58.6688 93.6141 57.5288C93.8711 56.9868 93.4711 56.3318 93.5421 55.6758C93.6281 54.8498 94.5551 53.2548 94.8271 52.2148C95.0411 51.4028 95.3411 50.5338 95.0841 49.6928C92.4721 51.9298 90.4301 54.7788 87.5331 56.6878C86.3761 57.4578 85.1491 57.8418 84.0931 58.8108C83.5361 58.9248 83.2501 58.0278 82.6231 58.2838C82.3511 58.3978 82.0371 59.1818 81.6801 59.4938C81.4661 59.6798 79.5251 61.0338 79.3531 61.0908C79.1531 61.1608 78.8531 61.1758 78.9831 60.8768C79.1251 60.5488 80.7951 59.1388 81.1951 58.6678C81.6091 58.1698 83.8931 55.0068 83.5651 54.5798C81.6951 55.4058 80.3381 57.1148 78.7111 58.3118C75.6131 60.5778 72.2871 61.4608 68.4341 61.6178C67.7771 61.6458 66.5341 61.8458 66.7061 60.9618C69.4901 60.5058 71.8461 60.4348 74.5001 59.3518C78.0121 57.9278 79.5251 56.1038 82.4221 54.0238C82.7361 53.7958 83.3361 53.3688 83.6781 53.3118C85.0481 53.0408 86.5761 55.6478 87.5331 55.3778L94.9691 48.4108L95.5831 48.3818L100.008 51.9718C102.107 49.9348 103.948 47.6128 106.232 45.7748C106.817 45.3048 107.274 44.7778 108.045 45.1048C108.916 45.4758 111.699 48.8518 112.584 48.6808C114.54 47.7548 115.639 45.2908 117.195 44.1368C117.88 43.6238 118.751 43.3958 119.479 42.8258C120.849 41.7568 122.234 39.7488 123.647 38.4948C124.518 37.7248 125.345 36.5998 126.43 37.5118C127.487 38.3948 128.871 40.1478 129.942 41.2018C132.14 43.3388 134.467 45.2908 136.737 47.3138C137.151 47.6838 138.978 49.7788 139.135 49.8208C139.349 49.8928 139.477 49.8208 139.663 49.7498C140.077 49.6078 142.575 47.6418 143.031 47.2278C144.045 46.3018 144.116 45.0628 145.729 46.3168C147.057 47.3568 148.284 49.0948 149.484 50.2488C150.212 50.9608 154.951 55.2918 155.493 55.3488C156.235 55.0638 157.406 55.0358 158.048 54.5788C159.519 53.5248 161.117 51.4448 162.673 50.3338C162.859 50.1918 163.03 50.0208 163.301 50.0488C164.229 50.1198 168.554 54.9068 169.625 55.8048C169.925 56.0608 171.152 57.0298 171.423 57.1148C172.808 57.5718 174.15 55.4768 175.563 55.7478C176.805 55.9898 179.074 58.2268 180.431 58.8968C182.586 59.9648 185.341 60.2068 187.625 61.0328L187.796 61.4328C187.368 62.0308 181.972 60.6198 181.001 60.4488L181.087 61.2618C178.832 60.8478 177.133 58.3688 174.549 59.2948C174.492 58.7678 175.178 58.8968 175.335 58.3688C175.477 57.8848 175.335 57.3288 175.206 56.8588C173.993 56.9448 173.193 58.4978 171.866 58.3268C171.323 58.2548 169.511 56.8168 168.825 56.4458C168.511 56.2748 167.198 55.6478 166.941 55.7188L166.684 56.1188C166.77 56.5458 171.166 58.8818 171.909 59.3948C172.194 59.5948 174.05 60.9758 174.136 61.0908C174.25 61.2608 174.221 61.4038 174.207 61.5888C172.565 61.6598 171.223 60.5348 169.825 59.8368C169.025 59.4378 167.826 59.1388 167.113 58.6258C166.513 58.1838 165.713 56.6028 165.128 56.3598C164.743 56.2038 164.8 57.3438 164.229 57.1728V53.0828C164.229 53.0828 163.844 53.0828 163.758 52.8278C163.644 52.4568 163.886 51.3028 163.301 51.1318C162.716 50.9608 160.175 53.7248 159.561 54.2238C158.89 54.7638 157.349 55.5908 156.935 56.0188C156.735 56.2188 156.635 56.3748 156.706 56.6738C157.62 57.1298 158.719 57.6138 159.59 58.1268C160.632 58.7398 161.645 59.5668 162.702 60.0928C164.229 60.8628 166.898 61.3468 168.14 62.1728C168.34 62.3158 168.54 62.4438 168.483 62.7288C167.812 62.9288 167.241 62.7288 166.584 62.5868C161.403 61.4888 156.621 58.7538 152.01 56.2318C151.867 56.1468 150.897 55.2488 150.982 55.9468C151.025 56.3168 151.254 56.7868 151.468 57.1008C152.11 58.0128 155.279 59.8508 156.378 60.8478C156.521 60.9768 158.062 62.3578 157.277 62.2448C155.664 61.2048 153.851 60.4638 152.239 59.4378C149.441 57.6578 150.183 56.3888 149.098 53.9098C148.884 53.3968 148.242 53.3398 148.356 52.6138C147.428 52.5568 147.243 53.9668 146.229 53.7538C146.172 53.1268 146.557 52.6568 146.572 52.0438C146.629 50.0778 145.315 48.4248 144.516 46.7438L141.333 49.7638L140.048 50.6898C139.763 51.1888 142.175 53.7678 142.546 54.4228C143.617 56.3458 142.717 57.0588 142.717 58.9818L151.625 64.7948L151.796 65.1938C151.268 65.2358 150.782 65.0078 150.312 64.7938C147.471 63.4978 143.288 61.0048 140.576 59.3238C138.535 58.0558 135.923 56.3738 134.039 54.9078C132.097 53.3978 130.27 51.5158 128.314 50.0058C126.73 52.6418 129.385 53.0698 130.998 54.1808C132.012 54.8788 132.825 55.9328 133.81 56.6028C135.052 57.4578 136.622 58.0838 137.935 59.0098C139.834 60.3348 141.718 61.7888 143.603 63.1558C143.888 63.3698 144.445 63.6408 144.43 64.0398L135.266 59.7938C134.652 60.4348 138.378 63.4548 138.464 64.3668C136.537 62.7708 134.324 61.4318 132.483 59.7228C131.912 59.1808 129.956 56.7448 129.457 56.6878C129.157 56.6598 128.9 56.7588 128.9 57.0868C128.886 57.9268 131.069 61.0338 131.683 61.8308C131.983 62.2158 133.996 64.1388 133.639 64.5238C132.911 64.6378 131.769 62.4438 131.355 62.7288C131.298 63.1848 130.998 63.4548 130.541 63.3838C130.541 63.0418 130.57 62.7008 130.498 62.3588C130.327 61.4888 127.958 58.0698 127.144 57.8418C126.759 57.7418 125.388 59.2518 125.046 59.6228C124.489 60.2208 123.904 61.1048 123.333 61.6748C123.147 61.8598 122.99 62.1298 122.676 62.0738C122.562 61.9588 124.004 59.5518 124.175 59.2528C124.475 58.7678 126.302 56.3888 125.945 56.0328L124.803 56.1178C125.431 55.2638 126.388 54.9498 127.258 54.4508C127.101 51.8308 126.359 49.3938 125.702 46.8858C125.531 46.6298 125.36 46.7008 125.131 46.8008C124.775 46.9718 123.19 48.9668 122.676 48.5108C122.719 47.7978 123.461 47.5128 123.818 47.1288C125.031 45.8038 127.101 44.2088 126.602 42.3128C125.403 42.2988 125.203 43.4958 124.147 43.4528C124.875 41.7428 126.016 40.6888 125.759 38.6518C125.588 37.1988 124.703 38.9218 124.318 39.2928C123.832 39.7338 123.204 40.0628 122.748 40.5028C121.906 41.3298 121.02 42.6408 120.135 43.2818C119.465 43.7658 118.337 43.9938 117.837 44.4218C117.437 44.7638 116.638 46.2018 116.124 46.7868C115.396 47.6268 114.469 48.2398 113.755 48.9948C113.512 49.2518 113.441 49.6648 113.312 49.7788C113.098 49.9788 112.613 49.8928 112.285 50.1488C112.056 50.3338 111.828 50.9888 111.614 51.2738C110.928 52.1718 108.973 54.9928 108.145 55.3338C107.731 55.5058 107.26 55.7048 106.86 55.3918C106.718 55.2778 106.503 54.4228 106.047 55.0498C105.59 55.6768 107.046 56.7308 106.946 57.5718C106.875 58.2268 105.604 59.5798 105.147 60.1218L104.819 59.6368L104.847 59.6658ZM128.729 46.7578C128.857 46.0178 128.9 42.8828 127.686 43.1538C127.501 43.1958 126.873 44.7488 126.973 45.1618C127.073 45.5748 128.529 46.9148 128.743 46.7578H128.729ZM131.112 47.4138C130.613 47.7838 130.984 48.3818 131.184 48.7948C131.412 49.2518 133.71 52.4428 133.639 50.6048C133.596 49.5508 131.783 48.1828 131.112 47.3988V47.4138ZM109.372 48.1258C109.273 48.0398 108.816 47.7268 108.787 47.7408L108.473 48.2828C108.687 49.1798 110.3 49.8208 110.1 48.8098C110.072 48.6808 109.787 48.6668 109.687 48.5528C109.558 48.4108 109.487 48.2108 109.387 48.1118L109.372 48.1258ZM133.639 47.9118C133.182 48.3818 135.209 50.6048 135.923 49.6218C136.009 49.2518 133.867 47.6698 133.639 47.9118ZM108.602 52.3148C108.559 51.9298 108.816 51.5598 108.702 51.1748C108.63 50.9468 107.788 49.8208 107.545 49.8778C106.789 50.0348 108.23 52.1578 108.602 52.3278V52.3148ZM96.4971 50.8468C95.8831 51.8298 98.1381 53.7818 98.7091 52.9698C98.9381 52.6278 98.6521 52.4428 98.4671 52.2148C98.2961 52.0288 96.6261 50.6758 96.4971 50.8328V50.8468ZM134.952 51.3318C134.881 52.6988 136.765 52.8128 137.678 53.2548C137.978 53.3968 138.507 53.7528 138.763 53.9668C139.62 54.6508 140.034 55.7338 140.748 56.2318C140.947 56.3748 141.033 56.5318 141.247 56.2318C141.818 55.3918 139.549 53.4538 138.949 52.9698C137.764 52.0148 136.565 51.0898 134.938 51.3318H134.952ZM96.0121 53.4538C95.7121 53.1838 94.6271 55.3208 94.6981 55.4058C95.3121 55.3208 95.4261 54.5798 96.1681 54.7508L96.0121 53.4538ZM84.3501 55.4338C83.7501 55.6058 83.4071 57.0158 83.9071 57.4438C85.2201 58.5838 85.9911 54.9638 84.3501 55.4338ZM187.025 93.3448C188.139 92.2328 189.28 95.0968 187.582 94.9408C186.725 94.8548 186.568 93.8148 187.025 93.3448ZM180.288 81.5198C180.088 80.5098 180.716 80.0668 181.672 80.0668C183.214 80.0668 181.287 82.3038 180.288 81.5208M187.925 84.1138C187.454 84.5838 186.597 84.2138 186.668 83.4298C186.797 81.8058 188.838 83.2018 187.925 84.1138ZM183.171 75.3658C184.57 74.9378 184.142 77.1178 183.057 76.5618C182.557 76.3058 182.643 75.5228 183.171 75.3658ZM162.544 79.2688C163.386 78.9978 163.915 80.5788 162.687 80.3938C161.945 80.2798 162.045 79.4248 162.544 79.2688ZM161.603 83.6848L161.474 84.5828C161.203 84.7828 160.704 84.6248 160.561 84.3258C160.247 83.3718 160.903 83.4558 161.603 83.6848ZM181.401 94.2568L180.459 94.4268C180.331 94.0998 180.245 93.7868 180.488 93.5018L181.273 93.3588L181.401 94.2428V94.2568ZM160.089 85.6528C160.817 85.4668 160.774 86.6498 160.389 86.7778C159.747 86.9628 159.318 85.8528 160.089 85.6528ZM163.087 82.5178L163.015 83.5008C162.516 84.2558 161.36 82.3758 163.087 82.5178ZM177.818 81.7058C176.705 81.8198 176.077 80.4238 177.661 80.7938L177.818 81.7058ZM100.08 85.4948C100.408 86.0508 100.365 87.0338 99.6651 87.2328C98.8381 87.4748 97.9951 86.3218 98.3951 85.4668C98.7091 84.8108 99.4801 85.6228 100.08 85.4948ZM98.7521 82.7168C99.2371 82.6168 99.6651 82.7168 99.7801 83.2578C98.9521 86.0648 96.8531 83.1158 98.7521 82.7168ZM96.9961 95.7518C97.7391 95.4958 98.8801 97.0918 98.3091 97.4758C97.0671 97.7758 96.4971 96.8778 96.9961 95.7518ZM95.1401 98.3878C95.6121 98.2738 96.5541 98.8298 96.4831 99.3848C96.2541 101.024 93.6121 98.7578 95.1401 98.3878ZM81.5661 72.5878L82.1221 72.8018C82.5931 73.4138 82.0371 74.4398 81.2381 74.3398C80.4241 74.1398 80.9661 72.8438 81.5661 72.5878ZM88.7601 90.2258C88.9461 90.2258 89.0461 90.3108 89.1461 90.4388C89.5021 90.6528 88.8881 91.9638 88.7171 91.9918L88.1471 91.7498C87.8031 91.3798 88.1751 90.2678 88.7601 90.2258ZM83.2501 72.8868C83.6211 72.5598 84.2641 72.5308 84.6201 72.8728C84.8491 73.0868 84.6631 73.3288 84.7201 73.5428C84.0071 74.0268 83.3931 74.1978 83.2501 73.2148V72.8868ZM85.8481 89.5688L85.8771 90.6948L84.7491 90.6658C84.2491 89.6968 84.8771 89.0698 85.8481 89.5688Z" fill="#3A4951"/>
<path d="M95.954 96.4231C96.725 96.2231 96.982 97.6481 96.083 97.7191C95.098 97.8041 95.341 96.5791 95.954 96.4231ZM83.836 92.0061C84.521 91.7781 85.021 92.7461 84.564 93.0611C83.679 93.6731 83.164 92.2201 83.836 92.0061ZM98.724 88.5731C99.538 88.3161 99.951 89.4851 99.166 89.6841C98.524 89.8411 98.167 88.7581 98.724 88.5731ZM96.126 83.2021C96.825 83.0171 96.854 84.1571 96.411 84.3131C95.526 84.6131 95.469 83.3731 96.126 83.2021ZM81.309 86.4641C81.651 85.9231 82.565 86.7641 82.194 87.2621C81.766 87.8461 80.938 87.0481 81.309 86.4641ZM98.253 94.3271C98.781 94.9401 98.11 95.3671 97.553 94.9401C97.039 94.5401 97.453 93.4011 98.253 94.3271ZM87.832 88.7301L87.033 88.7021C86.605 88.2461 87.19 87.4771 87.675 87.8191L87.832 88.7301ZM99.923 96.0951C100.222 96.3091 100.023 97.4771 99.309 97.0351C98.824 96.7361 99.338 95.6671 99.923 96.0951ZM100.279 88.3871C99.879 88.1451 100.308 87.3331 100.836 87.4181C101.407 87.5181 100.993 88.8281 100.279 88.3871ZM97.796 88.4151C97.867 88.5441 97.838 88.9291 97.739 89.0571L96.996 89.2131V88.2311C96.996 88.2311 97.753 88.3441 97.796 88.4151ZM83.25 73.2141C83.25 73.2141 83.122 73.1441 83.25 73.0581V73.2141ZM86.362 73.8701V74.3541H85.705V74.1121C85.877 73.8561 86.062 73.8271 86.362 73.8701ZM176.676 98.0471C176.905 98.3031 175.734 99.4861 175.535 99.3431C175.063 98.5171 175.021 97.7611 176.02 97.3771C175.977 97.8761 176.177 98.0611 176.676 98.0321V98.0471ZM166.827 93.6591C167.126 93.8291 167.255 94.8991 167.183 95.2541C166.041 95.6811 165.942 93.1461 166.827 93.6591ZM169.753 91.2221C170.053 91.5921 169.953 92.5621 169.41 92.4761C168.911 92.3901 168.725 91.0081 169.367 91.0361C169.482 91.0941 169.682 91.1221 169.753 91.2221ZM169.924 84.2851C169.482 84.7401 168.611 83.9711 168.825 83.3451C169.368 83.2021 170.595 83.6011 169.924 84.2851ZM173.264 100.027C173.478 99.9131 173.807 100.027 173.878 100.269C174.021 100.867 173.407 102.021 172.993 101.138C172.851 100.839 173.079 100.127 173.264 100.027ZM171.28 88.5731C171.209 89.2131 171.066 89.9261 170.296 89.7131L170.367 88.7151L171.28 88.5591V88.5731ZM170.623 93.6301C171.38 93.3871 171.68 94.8121 171.009 94.9261C170.438 95.0261 170.367 94.0011 170.623 93.6301ZM167.841 99.9981C168.725 99.7841 168.783 101.18 168.24 101.308C167.697 101.436 167.569 100.382 167.841 99.9981ZM173.393 83.5001C173.779 83.7571 173.379 84.8821 172.737 84.8111C172.351 84.3551 172.865 83.1431 173.393 83.5001ZM170.88 76.4921C171.68 76.2491 171.608 77.7321 170.709 77.6171C170.253 77.4031 170.567 76.5911 170.88 76.4921ZM165.499 88.4301C166.384 88.2021 166.042 89.5841 165.314 89.3841C164.886 89.2701 165.071 88.5441 165.499 88.4301ZM166.684 83.1731C166.798 83.6001 167.098 84.2131 166.442 84.3131C165.842 83.9001 165.828 83.0731 166.684 83.1731ZM156.021 99.1441C156.192 98.8741 155.821 98.2891 156.292 98.3601C157.292 98.8881 155.992 100.555 155.564 99.4151C155.607 99.2731 155.964 99.2291 156.021 99.1441ZM152.396 94.9411C153.01 94.7561 153.58 95.5111 153.124 95.8381C152.481 96.2801 151.71 95.1551 152.396 94.9411ZM158.662 89.8971C158.648 90.4961 158.291 90.7951 157.692 90.6951C157.635 89.6701 157.692 89.2711 158.662 89.8971ZM152.952 90.3681L152.867 90.6951C152.124 90.9661 151.339 90.6671 152.067 89.8691L152.966 90.3681H152.952ZM92.243 96.5651C92.671 96.8651 92.115 97.9901 91.673 98.1891C91.458 98.2031 91.373 96.7931 91.673 96.7081L92.257 96.5511L92.243 96.5651Z" fill="#3A4951"/>
<path d="M126.673 181.304C86.8051 181.304 54.3731 142.268 54.3731 94.299C54.3731 46.3299 86.8051 7.29395 126.673 7.29395C166.541 7.29395 198.973 46.3299 198.973 94.299C198.973 142.268 166.541 181.304 126.673 181.304ZM126.673 8.87495C87.6751 8.87495 55.9581 47.199 55.9581 94.313C55.9581 141.427 87.6751 179.751 126.673 179.751C165.671 179.751 197.388 141.427 197.388 94.313C197.388 47.199 165.671 8.87495 126.673 8.87495ZM1.05811 208.559C2.51411 208.559 3.84211 209.057 5.22611 209.057C8.96611 209.057 11.6211 208.559 12.8061 208.559C13.5631 208.559 13.9341 208.886 13.9341 209.798L13.8771 213.089L13.9051 216.166C13.9051 216.622 13.7481 216.864 13.4481 216.864C13.1481 216.864 12.9631 216.708 12.7491 215.838C12.2061 213.659 11.4071 210.738 7.81011 210.738H7.72411C6.78211 210.738 6.38311 211.394 6.38311 212.59V239.759C6.38311 241.896 7.51011 242.309 8.29511 242.551C8.69511 242.68 8.78111 242.922 8.78111 243.249C8.78111 243.534 8.65211 243.905 8.26711 243.905C7.93811 243.905 6.14011 243.662 4.39811 243.662C2.65711 243.662 0.873113 243.905 0.530113 243.905C0.130113 243.905 0.0161133 243.534 0.0161133 243.249C0.0161133 242.922 0.102113 242.68 0.502113 242.551C1.35811 242.309 2.42911 241.896 2.42911 239.759V212.59C2.42911 211.394 2.71411 210.738 1.77211 210.738H0.202113L1.07211 208.559H1.05811ZM13.9341 226.267C13.9341 215.126 17.9881 207.889 24.1971 207.889C30.4071 207.889 34.4321 215.126 34.4321 226.267C34.4321 237.408 30.4071 244.56 24.1971 244.56C17.9871 244.56 13.9341 237.365 13.9341 226.267ZM30.1641 226.267C30.1641 216.408 27.8231 209.741 24.1971 209.741C20.5711 209.741 18.2021 216.394 18.2021 226.267C18.2021 236.14 20.5721 242.708 24.1971 242.708C27.8221 242.708 30.1641 236.097 30.1641 226.267ZM35.1601 209.955C34.6741 209.826 34.5751 209.542 34.5751 209.214C34.5751 208.929 34.7031 208.559 35.1881 208.559C35.7311 208.559 37.1721 208.73 38.9001 208.73C40.9701 208.73 42.8971 208.559 43.9811 208.573C48.5211 208.573 51.4751 212.605 51.4751 218.759C51.4751 225.255 48.4921 229.9 43.9251 229.9C42.8251 229.9 42.0971 229.487 41.5121 228.988C41.1121 228.661 40.9701 228.832 40.9701 229.402V239.759C40.9701 241.896 42.0121 242.266 42.8821 242.551C43.2821 242.68 43.3681 242.922 43.3681 243.249C43.3681 243.534 43.2391 243.905 42.8541 243.905C42.5251 243.905 40.7271 243.662 38.9861 243.662C37.2451 243.662 35.4601 243.905 35.1171 243.905C34.7171 243.905 34.6031 243.534 34.6031 243.249C34.6031 242.922 34.6891 242.68 35.0891 242.551C36.0021 242.266 37.0151 241.896 37.0151 239.759V211.892C37.0151 210.581 35.9451 210.168 35.1601 209.955ZM43.5391 227.834C45.9791 227.834 47.2221 224.828 47.2221 219.087C47.2221 213.046 45.8801 210.211 42.9821 210.211C41.4841 210.211 40.9701 210.624 40.9701 212.106V224.971C40.9701 226.367 41.8261 227.848 43.5251 227.848L43.5391 227.834Z" fill="#3A4951"/>
<path d="M62.9382 209.912C62.5382 209.784 62.4522 209.542 62.4522 209.214C62.4522 208.929 62.5822 208.559 62.9662 208.559C63.2952 208.559 65.0932 208.8 66.8352 208.8C68.5762 208.8 70.3752 208.559 70.7032 208.559C71.1032 208.559 71.2172 208.929 71.2172 209.214C71.2172 209.542 71.1312 209.784 70.7322 209.912C69.7902 210.197 68.8192 210.567 68.8192 211.878V239.745C68.8192 241.882 69.7612 242.338 70.4322 242.537C70.8322 242.665 70.9172 242.907 70.9172 243.235C70.9172 243.52 70.7892 243.89 70.4032 243.89C70.0752 243.89 68.5762 243.648 66.8352 243.648C65.0942 243.648 63.6092 243.89 63.2662 243.89C62.8662 243.89 62.7522 243.52 62.7522 243.235C62.7522 242.907 62.8382 242.665 63.2382 242.537C63.9082 242.338 64.8502 241.882 64.8502 239.745V227.293C64.8502 226.923 64.6942 226.766 64.4502 226.766H57.4702C57.2002 226.766 57.0712 226.965 57.0712 227.293V239.745C57.0712 241.882 58.0412 242.252 58.9982 242.537C59.3982 242.665 59.4842 242.907 59.4842 243.235C59.4842 243.52 59.3542 243.89 58.9702 243.89C58.6412 243.89 56.8432 243.648 55.1012 243.648C53.3602 243.648 51.5612 243.89 51.2332 243.89C50.8332 243.89 50.7192 243.52 50.7192 243.235C50.7192 242.907 50.8042 242.665 51.2042 242.537C52.1182 242.252 53.1172 241.882 53.1172 239.745V211.878C53.1172 210.567 52.1172 210.197 51.2042 209.912C50.8042 209.784 50.7192 209.542 50.7192 209.214C50.7192 208.929 50.8472 208.559 51.2332 208.559C51.5612 208.559 53.3602 208.8 55.1012 208.8C56.8422 208.8 58.6272 208.559 58.9702 208.559C59.3702 208.559 59.4842 208.929 59.4842 209.214C59.4842 209.542 59.3982 209.784 58.9982 209.912C58.1132 210.197 57.0712 210.567 57.0712 211.878V224.372C57.0712 224.743 57.2282 224.914 57.4992 224.914H64.4362C64.7082 224.914 64.8362 224.714 64.8362 224.344V211.892C64.8362 210.581 63.8662 210.211 62.9092 209.926L62.9382 209.912ZM93.0852 227.293V239.745C93.0852 241.882 94.0552 242.252 95.0122 242.537C95.4122 242.665 95.4972 242.907 95.4972 243.235C95.4972 243.52 95.3692 243.89 94.9842 243.89C94.6552 243.89 92.8572 243.648 91.1152 243.648C89.3742 243.648 87.5752 243.89 87.2472 243.89C86.8472 243.89 86.7332 243.52 86.7332 243.235C86.7332 242.907 86.8192 242.665 87.2192 242.537C88.1322 242.252 89.1312 241.882 89.1312 239.745V211.878C89.1312 210.567 88.1322 210.197 87.2192 209.912C86.8192 209.784 86.7332 209.542 86.7332 209.214C86.7332 208.929 86.8622 208.559 87.2472 208.559C87.5752 208.559 89.3742 208.8 91.1152 208.8C92.8562 208.8 94.6412 208.559 94.9842 208.559C95.3842 208.559 95.4972 208.929 95.4972 209.214C95.4972 209.542 95.4122 209.784 95.0122 209.912C94.1272 210.197 93.0852 210.567 93.0852 211.878V227.293Z" fill="#3A4951"/>
<path d="M73.5011 240.571V212.704C73.5011 210.567 72.5011 210.197 71.5741 209.912C71.1741 209.784 71.0881 209.542 71.0881 209.214C71.0881 208.929 71.2171 208.559 71.6021 208.559C71.9301 208.559 73.7291 208.8 75.4701 208.8C77.2111 208.8 79.0101 208.559 79.3391 208.559C79.7391 208.559 79.8531 208.929 79.8531 209.214C79.8531 209.542 79.7671 209.784 79.3681 209.912C78.4831 210.197 77.4551 210.567 77.4551 212.704V223.062C77.4551 223.632 77.6121 223.803 77.9971 223.475C78.5821 222.976 79.3111 222.563 80.4101 222.563C84.9781 222.563 87.9601 227.207 87.9601 233.704C87.9601 239.873 85.0061 243.89 80.4671 243.89C79.3671 243.89 77.4551 243.734 75.3851 243.734C73.6441 243.734 72.2161 243.905 71.6731 243.905C71.1881 243.905 71.0601 243.534 71.0601 243.249C71.0601 242.964 71.1461 242.637 71.6451 242.509C72.4451 242.309 73.5011 241.896 73.5011 240.571ZM77.4551 227.506V240.371C77.4551 241.853 77.9691 242.266 79.4681 242.266C82.3651 242.266 83.7071 239.431 83.7071 233.391C83.7071 227.635 82.4511 224.643 80.0241 224.643C78.3251 224.643 77.4691 226.125 77.4691 227.521L77.4551 227.506ZM97.0401 209.955C96.5541 209.826 96.4541 209.542 96.4541 209.214C96.4541 208.929 96.5821 208.559 97.0681 208.559L99.8371 208.687C101.578 208.772 103.334 208.73 104.676 208.73C107.046 208.73 109.515 208.573 111.099 208.573C111.856 208.573 112.227 208.901 112.227 209.812C112.227 210.795 112.17 211.664 112.17 212.818L112.199 215.853C112.199 216.309 112.042 216.465 111.77 216.465C111.471 216.465 111.371 216.294 111.099 215.44C110.343 213.061 108.973 210.339 105.19 210.339C103.477 210.339 102.849 210.795 102.849 212.932V222.549C102.849 223.902 102.977 224.144 104.305 224.144H106.189C108.501 224.144 108.93 221.594 109.087 220.241C109.172 219.543 109.358 219.301 109.672 219.301C109.943 219.301 110.186 219.429 110.186 220.241C110.186 220.896 110.058 223.489 110.058 225.085C110.058 226.524 110.186 228.903 110.186 229.601C110.186 230.213 110.001 230.427 109.701 230.427C109.401 230.427 109.215 230.228 109.087 229.53C108.873 228.176 108.501 225.997 106.189 225.997H104.305C102.963 225.997 102.849 226.196 102.849 227.607V239.445C102.849 241.668 103.791 242.152 105.675 242.152C109.515 242.152 110.614 239.075 111.399 235.827C111.613 234.958 111.728 234.801 112.013 234.801C112.299 234.801 112.47 235.001 112.47 235.827L112.413 239.403C112.413 240.714 112.47 241.54 112.47 242.238C112.47 243.506 111.985 243.919 110.914 243.919C109.515 243.919 107.046 243.748 104.362 243.748C102.863 243.748 100.979 243.705 99.6661 243.791L97.3531 243.919C96.9531 243.919 96.8391 243.549 96.8391 243.264C96.8391 242.936 96.9251 242.651 97.3251 242.523C97.9951 242.323 98.8811 241.91 98.8811 240.585V211.892C98.8811 210.581 97.8111 210.168 97.0251 209.955H97.0401ZM125.66 209.955C125.174 209.826 125.074 209.542 125.074 209.214C125.074 208.929 125.203 208.559 125.688 208.559C126.088 208.559 127.858 208.73 129.885 208.73C131.912 208.73 133.696 208.559 134.795 208.573C139.149 208.573 141.99 211.864 141.99 216.879C141.99 220.74 140.248 223.746 137.665 224.9C140.862 225.968 143.032 229.501 143.032 234.018C143.032 240.015 139.891 243.919 135.052 243.919L129.899 243.833C127.915 243.833 126.402 243.919 125.702 243.919C125.217 243.919 125.089 243.549 125.089 243.264C125.089 242.936 125.174 242.651 125.674 242.523C126.473 242.323 127.53 241.91 127.53 240.585V211.892C127.53 210.581 126.459 210.168 125.674 209.955H125.66ZM137.722 217.106C137.722 212.747 136.137 210.197 133.454 210.197C132.055 210.197 131.469 210.567 131.469 212.092V222.905C131.469 224.059 131.769 224.43 132.811 224.43C135.794 224.43 137.722 221.552 137.722 217.121V217.106ZM134.153 242.252C136.994 242.252 138.749 239.046 138.749 234.16C138.749 229.274 136.494 226.068 133.054 226.068C131.769 226.068 131.469 226.31 131.469 227.663V239.175C131.469 241.397 132.355 242.252 134.153 242.252Z" fill="#3A4951"/>
<path d="M145.144 240.571V212.704C145.144 210.567 144.145 210.197 143.217 209.912C142.818 209.784 142.732 209.542 142.732 209.214C142.732 208.886 142.861 208.559 143.246 208.559C143.574 208.559 145.373 208.8 147.114 208.8C148.855 208.8 150.654 208.559 150.982 208.559C151.382 208.559 151.496 208.929 151.496 209.214C151.496 209.542 151.411 209.784 151.011 209.912C150.126 210.197 149.098 210.567 149.098 212.704V223.062C149.098 223.632 149.255 223.803 149.641 223.475C150.226 222.976 150.954 222.563 152.053 222.563C156.621 222.563 159.604 227.207 159.604 233.704C159.604 239.873 156.649 243.89 152.11 243.89C151.011 243.89 149.098 243.734 147.028 243.734C145.287 243.734 143.859 243.905 143.317 243.905C142.832 243.905 142.704 243.534 142.704 243.249C142.704 242.922 142.789 242.637 143.288 242.509C144.088 242.309 145.144 241.896 145.144 240.571ZM149.113 227.506V240.371C149.113 241.853 149.626 242.266 151.125 242.266C154.023 242.266 155.365 239.431 155.365 233.391C155.365 227.635 154.108 224.643 151.682 224.643C149.983 224.643 149.127 226.125 149.127 227.521L149.113 227.506ZM162.016 239.745V212.704C162.016 210.567 160.917 210.154 160.104 209.912C159.704 209.784 159.618 209.542 159.618 209.214C159.618 208.886 159.747 208.559 160.132 208.559C160.461 208.559 162.259 208.8 164.001 208.8C165.742 208.8 167.527 208.559 167.869 208.559C168.269 208.559 168.383 208.929 168.383 209.214C168.383 209.499 168.297 209.784 167.898 209.912C167.041 210.154 165.97 210.567 165.97 212.704V239.745C165.97 241.882 166.913 242.209 167.898 242.537C168.297 242.665 168.383 242.907 168.383 243.235C168.383 243.563 168.254 243.89 167.869 243.89C167.541 243.89 165.742 243.648 164.001 243.648C162.26 243.648 160.461 243.89 160.132 243.89C159.733 243.89 159.618 243.52 159.618 243.235C159.618 242.95 159.704 242.665 160.104 242.537C161.103 242.209 162.016 241.882 162.016 239.745ZM185.07 217.149C184.77 217.149 184.641 216.95 184.527 216.409C183.642 212.59 182.272 209.755 179.831 209.755C175.749 209.755 173.093 216.252 173.093 226.238C173.093 236.226 175.862 242.722 180.131 242.722C182.657 242.722 183.656 239.645 184.784 235.115C184.941 234.502 185.055 234.245 185.327 234.245C185.655 234.245 185.783 234.488 185.783 235.072C185.783 236.055 185.726 236.966 185.726 238.691L185.783 241.526C185.783 243.05 183.343 244.56 180.116 244.56C173.265 244.56 168.811 237.323 168.811 226.224C168.811 215.125 173.136 207.889 179.802 207.889C183.086 207.889 185.469 209.413 185.469 210.923L185.412 213.231L185.469 216.394C185.469 216.964 185.312 217.135 185.041 217.135L185.07 217.149ZM186.254 226.267C186.254 215.126 190.308 207.889 196.518 207.889C202.728 207.889 206.752 215.126 206.752 226.267C206.752 237.408 202.727 244.56 196.518 244.56C190.308 244.56 186.254 237.365 186.254 226.267ZM202.499 226.267C202.499 216.408 200.158 209.741 196.532 209.741C192.906 209.741 190.537 216.394 190.537 226.267C190.537 236.14 192.906 242.708 196.532 242.708C200.158 242.708 202.499 236.097 202.499 226.267ZM212.962 210.738H212.876C209.279 210.738 208.494 213.659 207.937 215.838C207.723 216.708 207.566 216.864 207.266 216.864C206.966 216.864 206.781 216.622 206.781 216.166L206.809 213.089L206.752 209.798C206.752 208.886 207.123 208.559 207.88 208.559C209.336 208.559 212.505 209.057 216.288 209.057C220.071 209.057 223.511 208.559 224.695 208.559C225.452 208.559 225.823 208.886 225.823 209.798L225.766 213.089L225.795 216.166C225.795 216.622 225.638 216.864 225.338 216.864C225.038 216.864 224.852 216.708 224.638 215.838C224.096 213.659 223.296 210.738 219.699 210.738H219.614C218.672 210.738 218.272 211.394 218.272 212.59V239.759C218.272 241.896 219.399 242.309 220.185 242.551C220.584 242.68 220.67 242.922 220.67 243.249C220.67 243.534 220.542 243.905 220.156 243.905C219.828 243.905 218.029 243.662 216.288 243.662C214.547 243.662 212.762 243.905 212.419 243.905C212.02 243.905 211.905 243.534 211.905 243.249C211.905 242.922 211.991 242.68 212.391 242.551C213.247 242.309 214.318 241.896 214.318 239.759V212.59C214.318 211.394 213.918 210.738 212.976 210.738H212.962ZM229.749 240.571V212.704C229.749 210.567 228.75 210.197 227.822 209.912C227.422 209.784 227.336 209.542 227.336 209.214C227.336 208.929 227.465 208.559 227.85 208.559C228.178 208.559 229.977 208.8 231.719 208.8C233.46 208.8 235.259 208.559 235.587 208.559C235.987 208.559 236.101 208.929 236.101 209.214C236.101 209.499 236.015 209.784 235.615 209.912C234.73 210.197 233.703 210.567 233.703 212.704V223.062C233.703 223.632 233.86 223.803 234.245 223.475C234.83 222.976 235.558 222.563 236.658 222.563C241.225 222.563 244.209 227.207 244.209 233.704C244.209 239.873 241.254 243.89 236.715 243.89C235.615 243.89 233.703 243.734 231.633 243.734C229.891 243.734 228.464 243.905 227.922 243.905C227.436 243.905 227.308 243.534 227.308 243.249C227.308 242.964 227.393 242.637 227.893 242.509C228.692 242.309 229.749 241.896 229.749 240.571ZM233.703 227.506V240.371C233.703 241.853 234.217 242.266 235.715 242.266C238.613 242.266 239.955 239.431 239.955 233.391C239.955 227.635 238.699 224.643 236.272 224.643C234.573 224.643 233.717 226.125 233.717 227.521L233.703 227.506ZM246.621 239.745V212.704C246.621 210.567 245.522 210.154 244.708 209.912C244.308 209.784 244.223 209.542 244.223 209.214C244.223 208.886 244.351 208.559 244.737 208.559C245.065 208.559 246.863 208.8 248.605 208.8C250.347 208.8 252.131 208.559 252.473 208.559C252.873 208.559 252.987 208.929 252.987 209.214C252.987 209.499 252.902 209.784 252.502 209.912C251.645 210.154 250.575 210.567 250.575 212.704V239.745C250.575 241.882 251.517 242.209 252.502 242.537C252.902 242.665 252.987 242.907 252.987 243.235C252.987 243.52 252.859 243.89 252.473 243.89C252.145 243.89 250.346 243.648 248.605 243.648C246.864 243.648 245.065 243.89 244.737 243.89C244.337 243.89 244.223 243.52 244.223 243.235C244.223 242.95 244.308 242.665 244.708 242.537C245.707 242.209 246.621 241.882 246.621 239.745ZM61.3961 261.487L66.1641 269.137H65.8921L70.3891 261.487H70.6741L70.6321 261.843C70.6321 261.971 70.6171 262.114 70.6031 262.27V270.89C70.6031 271.061 70.6031 271.217 70.6321 271.331C70.6425 271.451 70.6616 271.57 70.6891 271.687V271.745H69.2601V271.687C69.3031 271.559 69.3321 271.431 69.3461 271.317C69.3601 271.203 69.3751 271.046 69.3751 270.875V263.496H69.7451L65.7491 270.291H65.4491L61.2951 263.652H61.6521V270.875C61.6521 271.046 61.6521 271.203 61.6811 271.317C61.6951 271.431 61.7231 271.559 61.7661 271.687V271.745H61.1521V271.687C61.1671 271.574 61.1951 271.445 61.2091 271.331C61.2231 271.217 61.2381 271.061 61.2381 270.89V262.242C61.2381 262.071 61.2381 261.943 61.2091 261.829C61.2091 261.715 61.1811 261.587 61.1671 261.473H61.4521L61.3961 261.487ZM78.2831 261.486V261.543C78.2414 261.663 78.2126 261.788 78.1971 261.914C78.1831 262.027 78.1681 262.184 78.1681 262.355V270.291H77.7541L84.5061 261.415H84.7921C84.7781 261.543 84.7491 261.672 84.7351 261.785C84.7178 261.927 84.7081 262.07 84.7061 262.213V270.889C84.7061 271.06 84.7061 271.217 84.7351 271.331C84.7631 271.444 84.7631 271.573 84.7921 271.687V271.744H83.3641V271.687C83.4071 271.559 83.4361 271.431 83.4501 271.316C83.4641 271.201 83.4791 271.046 83.4791 270.875V262.939H83.8931L77.1411 271.815H76.8551C76.8841 271.687 76.8981 271.559 76.9121 271.445C76.9261 271.331 76.9261 271.174 76.9261 271.017V262.341C76.9261 262.17 76.9261 262.013 76.8981 261.899C76.8701 261.785 76.8701 261.657 76.8411 261.543V261.486H78.2831ZM92.4001 261.487V261.544C92.3577 261.664 92.3289 261.788 92.3141 261.914C92.2966 262.061 92.2873 262.208 92.2861 262.356V266.26H92.0001L95.4541 263.025C95.7408 262.769 95.9835 262.541 96.1821 262.342C96.3821 262.142 96.5391 261.986 96.6391 261.857C96.7391 261.729 96.8111 261.629 96.8531 261.544L96.8821 261.487H97.7241V261.53C97.6101 261.615 97.4811 261.701 97.3671 261.8C97.2531 261.9 97.1101 262.028 96.9531 262.171C96.7961 262.313 96.6111 262.484 96.4111 262.684L96.0541 263.025L94.4411 264.55V264.279L97.3241 269.166C97.7671 269.921 98.1521 270.491 98.4661 270.861C98.7801 271.231 99.0521 271.474 99.2511 271.559V271.773C98.7811 271.83 98.3811 271.773 98.0241 271.602C97.6711 271.428 97.3557 271.186 97.0961 270.89C96.8033 270.542 96.5407 270.17 96.3111 269.778L93.4991 265.063H93.8421L92.1001 266.673L92.2571 266.345V270.861C92.2571 271.032 92.2571 271.189 92.2851 271.303C92.3151 271.417 92.3291 271.545 92.3711 271.673V271.73H90.9441V271.673C90.9581 271.559 90.9861 271.431 91.0011 271.317C91.0161 271.203 91.0291 271.046 91.0291 270.875V262.328C91.0291 262.157 91.0291 262 91.0011 261.886C90.9721 261.772 90.9721 261.644 90.9441 261.53V261.473H92.3711L92.4001 261.487ZM109.515 262.341C110.243 262.911 110.614 263.709 110.614 264.734C110.614 265.432 110.442 266.045 110.114 266.572C109.786 267.099 109.315 267.512 108.715 267.798C108.116 268.082 107.431 268.225 106.646 268.225C106.517 268.225 106.389 268.225 106.26 268.211C106.132 268.196 105.989 268.196 105.86 268.182V267.74H106.06C106.746 267.74 107.331 267.626 107.816 267.398C108.273 267.194 108.653 266.85 108.901 266.415C109.144 265.988 109.272 265.461 109.272 264.863C109.272 264.321 109.158 263.837 108.93 263.381C108.704 262.932 108.345 262.564 107.902 262.327C107.445 262.07 106.903 261.942 106.275 261.942H104.719L104.961 261.7V270.903C104.961 271.074 104.961 271.231 104.99 271.345C105.018 271.459 105.033 271.587 105.075 271.715V271.772H103.648V271.715C103.662 271.601 103.691 271.473 103.705 271.359C103.719 271.245 103.734 271.089 103.734 270.918V262.37C103.734 262.199 103.734 262.042 103.705 261.928C103.676 261.814 103.677 261.686 103.648 261.572V261.515H106.446C107.787 261.515 108.83 261.8 109.558 262.355L109.515 262.341ZM117.437 271.273C116.613 270.799 115.929 270.116 115.453 269.293C114.967 268.464 114.715 267.518 114.725 266.557C114.725 265.56 114.967 264.663 115.453 263.822C115.925 262.996 116.61 262.312 117.437 261.842C118.268 261.355 119.215 261.104 120.178 261.115C121.177 261.115 122.077 261.357 122.918 261.842C123.743 262.316 124.427 262.999 124.903 263.822C125.388 264.649 125.631 265.56 125.631 266.557C125.631 267.555 125.388 268.452 124.903 269.293C124.427 270.116 123.743 270.799 122.918 271.273C122.087 271.758 121.14 272.009 120.178 272C119.216 272.008 118.269 271.757 117.437 271.273ZM122.176 270.889C122.833 270.447 123.347 269.848 123.718 269.079C124.089 268.324 124.275 267.483 124.275 266.557C124.275 265.631 124.104 264.791 123.761 264.036C123.418 263.266 122.947 262.668 122.348 262.226C121.757 261.79 121.04 261.56 120.306 261.571C119.524 261.56 118.757 261.789 118.108 262.226C117.451 262.668 116.952 263.266 116.581 264.036C116.205 264.823 116.015 265.685 116.024 266.557C116.024 267.469 116.195 268.31 116.538 269.079C116.88 269.834 117.337 270.447 117.937 270.889C118.517 271.326 119.223 271.561 119.949 271.558C120.763 271.558 121.505 271.33 122.162 270.889H122.176ZM136.736 262.341C137.464 262.911 137.836 263.709 137.836 264.734C137.836 265.432 137.664 266.045 137.336 266.572C137.008 267.099 136.537 267.512 135.937 267.798C135.338 268.082 134.652 268.225 133.867 268.225C133.739 268.225 133.61 268.225 133.482 268.211C133.353 268.196 133.21 268.196 133.082 268.182V267.74H133.282C133.967 267.74 134.552 267.626 135.038 267.398C135.495 267.194 135.875 266.85 136.123 266.415C136.365 265.988 136.494 265.461 136.494 264.863C136.494 264.321 136.379 263.837 136.151 263.381C135.925 262.932 135.566 262.564 135.123 262.327C134.666 262.07 134.124 261.942 133.496 261.942H131.94L132.183 261.7V270.903C132.183 271.074 132.183 271.231 132.211 271.345C132.24 271.459 132.254 271.587 132.297 271.715V271.772H130.869V271.715C130.884 271.601 130.912 271.473 130.927 271.359C130.941 271.245 130.955 271.089 130.955 270.918V262.37C130.955 262.199 130.955 262.042 130.927 261.928C130.898 261.814 130.898 261.686 130.869 261.572V261.515H133.667C135.009 261.515 136.051 261.8 136.779 262.355L136.736 262.341ZM145.914 261.414C146.114 261.371 146.286 261.286 146.457 261.172L149.669 270.219C149.797 270.575 149.897 270.86 149.983 271.074C150.069 271.288 150.126 271.444 150.168 271.515C150.211 271.6 150.24 271.658 150.254 271.7V271.757H148.798V271.7C148.798 271.7 148.798 271.586 148.784 271.487C148.759 271.338 148.726 271.19 148.684 271.045C148.604 270.766 148.514 270.491 148.412 270.219L145.457 261.799H145.686L142.417 270.204C142.31 270.475 142.215 270.751 142.132 271.031C142.075 271.23 142.032 271.387 142.018 271.472C142.003 271.558 142.018 271.629 142.018 271.672V271.757H141.261V271.7C141.261 271.7 141.304 271.6 141.347 271.515C141.39 271.43 141.447 271.273 141.546 271.074C141.646 270.874 141.761 270.575 141.889 270.233L145.301 261.5C145.5 261.5 145.686 261.471 145.886 261.428L145.914 261.414ZM148.098 268.623V269.065H142.803V268.623H148.098ZM156.535 261.486V261.543C156.493 261.663 156.465 261.787 156.449 261.913C156.432 262.06 156.422 262.207 156.421 262.355V270.291H156.007L162.759 261.415H163.044C163.03 261.543 163.001 261.671 162.987 261.785C162.97 261.927 162.961 262.07 162.959 262.213V270.889C162.959 271.06 162.959 271.217 162.987 271.331C163.016 271.445 163.016 271.573 163.044 271.687V271.744H161.617V271.687C161.66 271.559 161.688 271.43 161.702 271.316C161.716 271.202 161.731 271.046 161.731 270.875V262.939H162.145L155.393 271.815H155.108C155.136 271.687 155.151 271.559 155.165 271.445C155.179 271.331 155.179 271.174 155.179 271.017V262.341C155.179 262.17 155.179 262.013 155.15 261.899C155.122 261.785 155.122 261.657 155.093 261.543V261.486H156.535ZM157.591 258.381C157.591 258.537 157.606 258.665 157.634 258.794C157.663 258.922 157.706 259.036 157.763 259.15C157.82 259.263 157.891 259.363 157.977 259.449C158.091 259.591 158.248 259.691 158.433 259.762C158.619 259.833 158.833 259.876 159.062 259.876C159.333 259.876 159.59 259.82 159.804 259.705C160.018 259.591 160.204 259.42 160.332 259.192C160.461 258.964 160.532 258.694 160.546 258.366H161.174C161.173 258.628 161.118 258.887 161.012 259.127C160.907 259.368 160.753 259.583 160.561 259.762C160.175 260.119 159.661 260.303 159.062 260.303C158.463 260.303 157.948 260.119 157.563 259.762C157.177 259.406 156.963 258.936 156.949 258.366H157.577L157.591 258.381ZM170.981 271.273C170.157 270.799 169.472 270.116 168.996 269.293C168.51 268.464 168.259 267.518 168.269 266.557C168.269 265.56 168.511 264.663 168.996 263.822C169.468 262.996 170.154 262.312 170.981 261.842C171.812 261.355 172.759 261.104 173.721 261.115C174.721 261.115 175.62 261.357 176.462 261.842C177.286 262.316 177.971 262.999 178.446 263.822C178.931 264.649 179.174 265.56 179.174 266.557C179.174 267.555 178.931 268.452 178.446 269.293C177.971 270.116 177.286 270.799 176.462 271.273C175.631 271.758 174.684 272.01 173.721 272C172.759 272.007 171.813 271.756 170.981 271.273ZM175.734 270.889C176.391 270.447 176.905 269.848 177.276 269.079C177.647 268.324 177.833 267.483 177.833 266.557C177.833 265.631 177.662 264.791 177.319 264.036C176.976 263.266 176.505 262.668 175.906 262.226C175.315 261.79 174.598 261.56 173.864 261.571C173.051 261.571 172.322 261.785 171.666 262.226C171.009 262.668 170.51 263.266 170.139 264.036C169.763 264.823 169.573 265.685 169.582 266.557C169.582 267.469 169.753 268.31 170.096 269.079C170.438 269.834 170.895 270.447 171.494 270.889C172.094 271.33 172.765 271.558 173.507 271.558C174.321 271.558 175.063 271.33 175.72 270.889H175.734ZM185.812 261.486V261.543C185.77 261.663 185.741 261.787 185.726 261.913C185.709 262.06 185.699 262.207 185.698 262.355V270.903C185.698 271.074 185.698 271.23 185.726 271.344C185.755 271.458 185.769 271.587 185.812 271.715V271.772H184.384V271.715C184.413 271.601 184.427 271.473 184.441 271.359C184.455 271.245 184.456 271.088 184.456 270.917V262.369C184.456 262.198 184.456 262.041 184.441 261.927C184.426 261.813 184.413 261.685 184.384 261.571V261.514H185.812V261.486ZM190.708 264.62V265.062H185.555V264.62H190.708ZM191.878 261.486V261.543C191.864 261.657 191.835 261.785 191.821 261.899C191.804 262.046 191.794 262.193 191.793 262.341V270.888C191.793 271.059 191.792 271.216 191.821 271.33C191.85 271.444 191.85 271.572 191.878 271.686V271.743H190.451V271.686C190.494 271.558 190.522 271.43 190.537 271.316C190.555 271.169 190.564 271.022 190.565 270.874V262.326C190.565 262.155 190.565 261.999 190.537 261.884C190.52 261.758 190.491 261.634 190.451 261.514V261.457H191.878V261.486ZM126.673 188.599C83.6071 188.599 48.5781 146.3 48.5781 94.299C48.5781 42.298 83.6081 0 126.673 0C169.739 0 204.769 42.299 204.769 94.3C204.769 146.301 169.739 188.599 126.673 188.599ZM126.673 1.482C84.4211 1.482 50.0481 43.125 50.0481 94.299C50.0481 145.474 84.4211 187.117 126.673 187.117C168.925 187.117 203.298 145.474 203.298 94.299C203.298 43.124 168.926 1.482 126.673 1.482Z" fill="#3A4951"/>
</g>
</g>
<defs>
<clipPath id="clip0_66_116">
<rect width="253" height="272" fill="white"/>
</clipPath>
</defs>
</svg>
