<svg xmlns="http://www.w3.org/2000/svg" width="32" height="32" fill="none" viewBox="0 0 32 32"><path fill="#3a4951" d="M15.87 14.881a4.94 4.94 0 1 0 0-9.882 4.94 4.94 0 0 0 0 9.882m0-7.881a2.94 2.94 0 1 1 0 5.881 2.94 2.94 0 0 1 0-5.881M6.534 17.785a3.8 3.8 0 1 0 0-7.601 3.8 3.8 0 0 0 0 7.6m0-5.6a1.8 1.8 0 1 1 0 3.6 1.8 1.8 0 0 1 0-3.6m18.664 5.601a3.8 3.8 0 1 0 0-7.601 3.8 3.8 0 0 0 0 7.6m0-5.6a1.8 1.8 0 1 1 0 3.6 1.8 1.8 0 0 1 0-3.6m.132 7.607a5.3 5.3 0 0 0-2.505.653 8.24 8.24 0 0 0-6.827-3.837 8.24 8.24 0 0 0-6.827 3.837 5.3 5.3 0 0 0-2.506-.653 5.963 5.963 0 0 0-5.667 6.21 1 1 0 1 0 2 0 3.97 3.97 0 0 1 3.667-4.21 3.3 3.3 0 0 1 1.577.42 10.1 10.1 0 0 0-.711 3.731 1 1 0 1 0 2 0c0-4.045 2.9-7.335 6.467-7.335s6.467 3.29 6.467 7.335a1 1 0 1 0 2 0 10.1 10.1 0 0 0-.711-3.732 3.3 3.3 0 0 1 1.577-.419 3.97 3.97 0 0 1 3.667 4.21 1 1 0 1 0 2 0 5.963 5.963 0 0 0-5.667-6.21"/></svg>