<svg xmlns="http://www.w3.org/2000/svg" width="32" height="32" fill="none" viewBox="0 0 32 32"><g clip-path="url(#a)"><g clip-path="url(#b)"><path fill="#3a4951" d="m30.38 19.987.76-.76a2.95 2.95 0 0 0 0-4.165v-.001L16.936.861a2.954 2.954 0 0 0-4.168 0L9.93 3.7a2.95 2.95 0 0 0 0 4.166l14.201 14.2a2.954 2.954 0 0 0 4.169 0l.753-.754.758.757a1.074 1.074 0 0 1 0 1.514l-2.842 2.84a1.075 1.075 0 0 1-1.516 0l-8.52-8.52a2.945 2.945 0 0 0-4.169 0l-.754.756-1.845-1.845a.938.938 0 0 0-1.326 1.326l.428.427-8.405 8.405a2.945 2.945 0 1 0 4.164 4.165l8.405-8.405.428.428a.937.937 0 1 0 1.326-1.326l-1.85-1.85.757-.756a1.07 1.07 0 0 1 1.515 0l8.52 8.522a2.95 2.95 0 0 0 4.168 0l2.842-2.841a2.95 2.95 0 0 0-.001-4.167zM3.701 29.812a1.07 1.07 0 1 1-1.513-1.513l8.405-8.405 1.513 1.513zM29.813 17.9l-2.836 2.84a1.08 1.08 0 0 1-1.516 0L11.257 6.54a1.073 1.073 0 0 1 0-1.515l2.837-2.84a1.08 1.08 0 0 1 1.515 0l14.205 14.2a1.074 1.074 0 0 1 0 1.515"/></g></g><defs><clipPath id="a"><path fill="#fff" d="M0 0h32v32H0z"/></clipPath><clipPath id="b"><path fill="#fff" d="M0 0h32v32H0z"/></clipPath></defs></svg>