<svg xmlns="http://www.w3.org/2000/svg" width="24" height="24" fill="none" viewBox="0 0 24 24"><g clip-path="url(#a)"><path fill="#3a4951" d="M12.008 24.035q-.168 0-.336-.006c-5.02-.181-8.957-4.412-8.776-9.432.061-1.715.52-3.472 1.363-5.221.754-1.565 1.795-3.086 3.094-4.521a.703.703 0 0 1 1.2.658c-.228.824-.01 1.313.139 1.53.153.224.332.309.394.315.171.016.488-.754.696-1.263.357-.874.801-1.96 1.642-2.956 1.005-1.19 2.321-1.954 4.024-2.337a.703.703 0 0 1 .848.802c-.562 3.35.665 4.9 2.085 6.693.742.938 1.51 1.907 2.052 3.177l.004.01a9 9 0 0 1 .668 3.767 9.05 9.05 0 0 1-2.9 6.343 9.05 9.05 0 0 1-6.197 2.441M7.221 7.223C5.413 9.64 4.388 12.226 4.3 14.648c-.153 4.245 3.176 7.822 7.422 7.976a7.65 7.65 0 0 0 5.525-2.06 7.66 7.66 0 0 0 2.451-5.363c.04-1.1-.15-2.17-.561-3.18-.468-1.094-1.144-1.948-1.86-2.851-1.348-1.703-2.737-3.458-2.502-6.706-2.351.882-3.088 2.683-3.692 4.163-.225.55-.42 1.025-.68 1.395-.479.68-1.056.775-1.456.735-.527-.052-1.056-.395-1.415-.917a2.7 2.7 0 0 1-.312-.617m2.925 11.424 4.841-6.613a.703.703 0 0 0-1.135-.83l-4.84 6.612a.703.703 0 1 0 1.134.831m-.574-3.395a1.64 1.64 0 0 1-1.635-1.636v-1.118c0-.903.733-1.637 1.635-1.637a1.64 1.64 0 0 1 1.638 1.637v1.118c0 .902-.735 1.636-1.638 1.636m0-2.985a.233.233 0 0 0-.23.231v1.118c0 .124.106.23.23.23a.233.233 0 0 0 .231-.23v-1.118a.234.234 0 0 0-.23-.23m4.855 6.72a1.64 1.64 0 0 1-1.638-1.636v-1.118a1.637 1.637 0 0 1 3.273 0v1.118c0 .902-.734 1.637-1.636 1.637m0-2.983a.233.233 0 0 0-.232.23v1.117c0 .125.106.23.232.23.124 0 .23-.105.23-.23v-1.118a.233.233 0 0 0-.23-.23"/></g><defs><clipPath id="a"><path fill="#fff" d="M0 0h24v24H0z"/></clipPath></defs></svg>