<svg xmlns="http://www.w3.org/2000/svg" width="24" height="24" fill="none" viewBox="0 0 24 24"><g clip-path="url(#a)"><g fill="#3a4951" clip-path="url(#b)"><path d="m22.995 15.761-1.375-11a.688.688 0 0 0-1.075-.479c-.91.633-1.89 1.168-2.9 1.62-1.777-3.712-6.882-4.224-9.363-.91a4.12 4.12 0 0 0-4.011 1.063.688.688 0 0 0 .972.972 2.75 2.75 0 0 1 3.89 0 .688.688 0 0 0 .971-.972 4 4 0 0 0-.546-.46c1.89-2.214 5.487-1.813 6.814.83-2.767 1.038-5.645 1.523-7.903 1.747-3.774.374-6.69.118-6.719.115a.688.688 0 0 0-.745.77l1.375 11a.69.69 0 0 0 .683.602c4.635 0 8.8-.454 12.397-1.35a3.1 3.1 0 0 0 3.071 2.725c2.44 0 3.916-2.707 2.609-4.754a20 20 0 0 0 1.533-.848.69.69 0 0 0 .322-.67M18.53 20.66a1.72 1.72 0 0 1-1.718-1.718 1.72 1.72 0 0 1 1.718-1.72 1.72 1.72 0 0 1 1.72 1.72 1.72 1.72 0 0 1-1.72 1.718m1.55-4.394c-1.648-.959-3.765-.202-4.442 1.58-3.448.914-7.47 1.397-11.97 1.437L2.473 9.71c5.808.276 12.908-.66 17.918-3.69l1.184 9.466q-.708.41-1.494.778"/><path d="m12.31 9.662-2.37.418a.69.69 0 0 0-.557.797l1.194 6.77a.687.687 0 1 0 1.354-.239l-.12-.677 1.354-.239a.688.688 0 0 0-.238-1.354l-1.355.24-.119-.678 1.693-.298a2.41 2.41 0 0 0 1.952-2.788 2.41 2.41 0 0 0-2.788-1.952m.597 3.385-1.693.299-.358-2.031 1.693-.299a1.032 1.032 0 0 1 .358 2.031"/></g></g><defs><clipPath id="a"><path fill="#fff" d="M1 1.41h22v22H1z"/></clipPath><clipPath id="b"><path fill="#fff" d="M1 1.41h22v22H1z"/></clipPath></defs></svg>