<svg xmlns="http://www.w3.org/2000/svg" width="24" height="24" fill="none" viewBox="0 0 24 24"><g clip-path="url(#a)"><g fill="#3a4951" clip-path="url(#b)"><path d="M22.811 1.599a.645.645 0 0 0-.911 0l-1.878 1.877a2 2 0 0 0-.364-.131l-5.834-1.441a1.94 1.94 0 0 0-1.836.508L1.565 12.818a1.936 1.936 0 0 0 0 2.734l7.293 7.292c.754.754 1.98.754 2.734 0l10.406-10.422a1.94 1.94 0 0 0 .508-1.836l-1.441-5.834a2 2 0 0 0-.131-.364L22.81 2.51a.645.645 0 0 0 0-.911m-1.555 9.3a.65.65 0 0 1-.17.612L10.681 21.933a.645.645 0 0 1-.912 0L2.477 14.64a.645.645 0 0 1 0-.912L12.899 3.324a.65.65 0 0 1 .612-.17l5.48 1.353-1.552 1.552a1.94 1.94 0 0 0-2.2.378 1.936 1.936 0 0 0 0 2.734c.376.377.872.566 1.367.566s.99-.189 1.367-.566c.594-.594.72-1.482.377-2.2l1.553-1.552zm-4.194-2.64a.645.645 0 1 1 0-.91.645.645 0 0 1 0 .91"/><path d="M11.593 9.171a1.936 1.936 0 0 0-2.735 0 1.936 1.936 0 0 0 0 2.735c.754.754 1.98.754 2.734 0a1.936 1.936 0 0 0 0-2.735m-.912 1.824a.645.645 0 1 1-.911-.914.645.645 0 0 1 .911.914m1.824 4.557a1.933 1.933 0 1 0-2.735 2.735 1.933 1.933 0 1 0 2.735-2.735m-.912 1.823a.644.644 0 1 1-.911-.91.644.644 0 0 1 .911.91m3.831-4.173a.645.645 0 0 0-.712-.57l-8.203.912a.645.645 0 1 0 .142 1.281l8.204-.911a.644.644 0 0 0 .57-.712"/></g></g><defs><clipPath id="a"><path fill="#fff" d="M0 0h24v24H0z"/></clipPath><clipPath id="b"><path fill="#fff" d="M1 1.41h22v22H1z"/></clipPath></defs></svg>