<svg xmlns="http://www.w3.org/2000/svg" width="32" height="32" fill="none" viewBox="0 0 32 32"><g fill="#3a4951" clip-path="url(#a)"><path d="M31.2 30.4h-2.4V17.6h1.6a1.6 1.6 0 0 0 1.132-2.732l-14.4-14.4a1.597 1.597 0 0 0-2.263 0l-4.47 4.469V3.2A1.6 1.6 0 0 0 8.8 1.6H7.2a1.6 1.6 0 0 0-1.6 1.6v6.537L.469 14.868A1.6 1.6 0 0 0 1.6 17.6h1.6v12.8H.8a.8.8 0 1 0 0 1.6h30.4a.8.8 0 1 0 0-1.6M7.2 3.2h1.6v3.337l-1.6 1.6zm20 27.2H4.8V16H1.6L16 1.6 30.4 16h-3.2z"/><path d="m21.83 13.834-12.799 12.8 1.132 1.131 12.8-12.8zm-9.833-.234a3.204 3.204 0 0 0-3.2 3.2c0 1.764 1.436 3.2 3.2 3.2s3.2-1.436 3.2-3.2-1.436-3.2-3.2-3.2m0 4.8c-.883 0-1.6-.718-1.6-1.6s.717-1.6 1.6-1.6 1.6.718 1.6 1.6-.717 1.6-1.6 1.6m8 3.2a3.204 3.204 0 0 0-3.2 3.2c0 1.764 1.436 3.2 3.2 3.2s3.2-1.436 3.2-3.2-1.436-3.2-3.2-3.2m0 4.8c-.883 0-1.6-.718-1.6-1.6s.717-1.6 1.6-1.6 1.6.718 1.6 1.6-.718 1.6-1.6 1.6"/></g><defs><clipPath id="a"><path fill="#fff" d="M0 0h32v32H0z"/></clipPath></defs></svg>