<svg xmlns="http://www.w3.org/2000/svg" width="237" height="60" fill="none" viewBox="0 0 237 60"><g fill="#fff" clip-path="url(#a)"><path d="M.976.627c1.364 0 2.608.466 3.905.466 3.504 0 5.992-.466 7.102-.466.708 0 1.056.307 1.056 1.16l-.053 3.079.026 2.88c0 .426-.147.653-.428.653-.28 0-.454-.147-.655-.96-.508-2.04-1.257-4.773-4.627-4.773h-.08c-.883 0-1.257.614-1.257 1.733v25.422c0 2 1.056 2.386 1.792 2.613.374.12.454.346.454.653 0 .266-.12.613-.481.613-.308 0-1.993-.227-3.624-.227S.802 33.7.48 33.7c-.374 0-.481-.347-.481-.613 0-.307.08-.534.455-.653.802-.227 1.805-.613 1.805-2.613V4.399c0-1.12.268-1.733-.615-1.733H.174L.99.626zm12.063 16.569C13.039 6.772 16.837 0 22.654 0s9.589 6.772 9.589 17.196-3.771 17.117-9.589 17.117c-5.817 0-9.615-6.732-9.615-17.117m15.205 0c0-9.224-2.193-15.463-5.59-15.463s-5.616 6.225-5.616 15.463 2.22 15.384 5.616 15.384c3.397 0 5.59-6.186 5.59-15.384m4.68-15.263c-.455-.12-.548-.386-.548-.693 0-.267.12-.613.575-.613.508 0 1.86.16 3.477.16 1.94 0 3.745-.16 4.761-.147 4.253 0 7.021 3.773 7.021 9.532 0 6.078-2.795 10.424-7.075 10.424-1.03 0-1.711-.387-2.26-.853-.374-.307-.508-.147-.508.387v9.69c0 2 .976 2.347 1.792 2.614.375.12.455.346.455.653 0 .266-.12.613-.482.613-.307 0-1.992-.227-3.623-.227s-3.304.227-3.625.227c-.374 0-.481-.347-.481-.613 0-.307.08-.534.455-.653.856-.267 1.805-.613 1.805-2.613V3.746c0-1.226-1.003-1.613-1.739-1.813m7.85 16.73c2.287 0 3.45-2.813 3.45-8.185 0-5.652-1.256-8.305-3.971-8.305-1.404 0-1.886.387-1.886 1.773v12.038c0 1.306.803 2.692 2.394 2.692z"/><path d="M58.95 1.893c-.375-.12-.455-.346-.455-.653 0-.267.12-.613.482-.613.307 0 1.992.226 3.624.226 1.631 0 3.316-.226 3.624-.226.374 0 .48.346.48.613 0 .307-.08.533-.454.653-.882.267-1.791.613-1.791 1.84v26.074c0 2 .882 2.426 1.51 2.613.375.12.455.347.455.653 0 .267-.12.614-.481.614-.308 0-1.712-.227-3.343-.227s-3.023.227-3.344.227c-.374 0-.481-.347-.481-.614 0-.306.08-.533.454-.653.629-.187 1.512-.613 1.512-2.613v-11.65c0-.347-.147-.494-.375-.494h-6.54c-.253 0-.374.187-.374.494v11.65c0 2 .91 2.347 1.806 2.613.374.12.454.347.454.653 0 .267-.12.614-.481.614-.308 0-1.993-.227-3.624-.227s-3.317.227-3.624.227c-.375 0-.482-.347-.482-.614 0-.306.08-.533.455-.653.856-.266 1.792-.613 1.792-2.613V3.733c0-1.227-.936-1.573-1.792-1.84-.374-.12-.455-.346-.455-.653 0-.267.12-.613.482-.613.307 0 1.992.226 3.624.226 1.631 0 3.303-.226 3.624-.226.374 0 .481.346.481.613 0 .307-.08.533-.454.653-.83.267-1.806.613-1.806 1.84v11.69c0 .347.147.507.401.507h6.5c.254 0 .374-.186.374-.533V3.747c0-1.227-.91-1.574-1.805-1.84zm28.245 16.264v11.65c0 2 .909 2.347 1.805 2.613.374.12.454.347.454.653 0 .267-.12.614-.481.614-.308 0-1.992-.227-3.624-.227s-3.317.227-3.624.227c-.375 0-.482-.347-.482-.614 0-.306.08-.533.455-.653.856-.266 1.792-.613 1.792-2.613V3.733c0-1.227-.936-1.573-1.792-1.84-.374-.12-.455-.346-.455-.653 0-.267.12-.613.482-.613.307 0 1.993.226 3.624.226s3.303-.226 3.624-.226c.375 0 .481.346.481.613 0 .307-.08.533-.454.653-.83.267-1.805.613-1.805 1.84z"/><path d="M68.845 30.58V4.506c0-2-.936-2.346-1.805-2.613-.375-.12-.455-.346-.455-.653 0-.267.12-.613.482-.613.307 0 1.992.226 3.624.226 1.631 0 3.316-.226 3.624-.226.374 0 .481.346.481.613 0 .307-.08.533-.454.653-.83.267-1.793.613-1.793 2.613v9.691c0 .534.148.694.509.387.548-.467 1.23-.853 2.26-.853 4.28 0 7.074 4.346 7.074 10.424 0 5.772-2.768 9.532-7.02 9.532-1.03 0-2.822-.147-4.761-.147-1.632 0-2.97.16-3.477.16-.455 0-.576-.347-.576-.613 0-.267.08-.574.549-.693.749-.187 1.738-.574 1.738-1.814m3.704-12.224v12.038c0 1.386.482 1.773 1.886 1.773 2.715 0 3.972-2.653 3.972-8.305 0-5.386-1.177-8.185-3.45-8.185-1.592 0-2.394 1.386-2.394 2.693zM90.898 1.933c-.455-.12-.548-.386-.548-.693 0-.267.12-.613.575-.613l2.594.12c1.632.08 3.277.04 4.534.04 2.22 0 4.533-.147 6.018-.147.709 0 1.056.307 1.056 1.16 0 .92-.053 1.733-.053 2.813l.026 2.84c0 .426-.147.572-.401.572-.281 0-.374-.16-.628-.96-.709-2.226-1.993-4.772-5.537-4.772-1.605 0-2.193.427-2.193 2.426v8.998c0 1.267.12 1.493 1.364 1.493h1.765c2.166 0 2.568-2.386 2.715-3.652.08-.653.254-.88.548-.88.255 0 .482.12.482.88 0 .613-.12 3.04-.12 4.532 0 1.347.12 3.573.12 4.226 0 .573-.174.773-.455.773s-.455-.186-.575-.84c-.2-1.266-.549-3.305-2.715-3.305h-1.765c-1.257 0-1.364.186-1.364 1.506v11.077c0 2.08.882 2.533 2.648 2.533 3.597 0 4.627-2.88 5.362-5.919.201-.813.308-.96.575-.96.268 0 .428.187.428.96l-.053 3.347c0 1.226.053 1.999.053 2.652 0 1.187-.454 1.573-1.457 1.573-1.311 0-3.624-.16-6.139-.16-1.404 0-3.169-.04-4.4.04l-2.166.12c-.374 0-.481-.346-.481-.613 0-.307.08-.573.454-.693.63-.187 1.458-.573 1.458-1.813V3.746c0-1.226-1.003-1.613-1.738-1.813zm26.813 0c-.454-.12-.548-.386-.548-.693 0-.267.121-.613.575-.613.375 0 2.033.16 3.932.16s3.571-.16 4.6-.147c4.079 0 6.74 3.08 6.74 7.772 0 3.612-1.631 6.425-4.052 7.505 2.996 1 5.029 4.306 5.029 8.532 0 5.612-2.942 9.264-7.476 9.264l-4.828-.08c-1.859 0-3.276.08-3.931.08-.455 0-.575-.346-.575-.613 0-.307.08-.573.548-.693.749-.187 1.738-.573 1.738-1.813V3.746c0-1.226-1.003-1.613-1.738-1.813zm11.301 6.692c0-4.079-1.485-6.465-3.999-6.465-1.31 0-1.859.347-1.859 1.773V14.05c0 1.08.281 1.426 1.257 1.426 2.795 0 4.601-2.693 4.601-6.838zm-3.343 23.529c2.661 0 4.306-3 4.306-7.572 0-4.573-2.113-7.572-5.336-7.572-1.204 0-1.485.227-1.485 1.493v10.771c0 2.08.83 2.88 2.515 2.88"/><path d="M135.966 30.58V4.506c0-2-.935-2.346-1.805-2.613-.374-.12-.455-.346-.455-.653s.121-.613.482-.613c.307 0 1.992.226 3.624.226s3.317-.226 3.624-.226c.375 0 .482.346.482.613 0 .307-.081.533-.455.653-.829.267-1.792.613-1.792 2.613v9.691c0 .534.147.694.508.387.549-.467 1.23-.853 2.26-.853 4.28 0 7.075 4.346 7.075 10.424 0 5.772-2.769 9.532-7.021 9.532-1.03 0-2.822-.147-4.761-.147-1.632 0-2.969.16-3.477.16-.455 0-.575-.347-.575-.613 0-.307.08-.574.548-.693.749-.187 1.738-.574 1.738-1.814m3.718-12.224v12.038c0 1.386.481 1.773 1.886 1.773 2.715 0 3.972-2.653 3.972-8.305 0-5.386-1.177-8.185-3.451-8.185-1.591 0-2.393 1.386-2.393 2.693zm12.089 11.451V4.506c0-2-1.03-2.386-1.792-2.613-.374-.12-.455-.346-.455-.653s.121-.613.482-.613c.307 0 1.992.226 3.624.226 1.631 0 3.303-.226 3.624-.226.375 0 .482.346.482.613s-.081.533-.455.653c-.803.227-1.806.613-1.806 2.613v25.301c0 2 .883 2.307 1.806 2.613.374.12.455.347.455.653s-.121.614-.482.614c-.307 0-1.993-.227-3.624-.227s-3.317.227-3.624.227c-.375 0-.482-.347-.482-.614 0-.266.081-.533.455-.653.936-.306 1.792-.613 1.792-2.613m21.598-21.142c-.28 0-.401-.187-.508-.693-.829-3.573-2.113-6.226-4.399-6.226-3.825 0-6.313 6.079-6.313 15.424s2.595 15.423 6.593 15.423c2.367 0 3.303-2.88 4.36-7.118.147-.574.254-.814.508-.814.308 0 .428.227.428.774 0 .92-.053 1.773-.053 3.386l.053 2.653c0 1.426-2.287 2.839-5.309 2.839-6.419 0-10.592-6.772-10.592-17.156C158.139 6.772 162.192 0 168.437 0c3.076 0 5.309 1.426 5.309 2.84l-.054 2.159.054 2.96c0 .533-.147.693-.401.693zm1.11 8.531C174.481 6.772 178.278 0 184.096 0s9.588 6.772 9.588 17.196-3.771 17.117-9.588 17.117c-5.818 0-9.615-6.732-9.615-17.117m15.218 0c0-9.224-2.193-15.463-5.59-15.463s-5.617 6.225-5.617 15.463 2.22 15.384 5.617 15.384 5.59-6.186 5.59-15.384m9.804-14.53h-.081c-3.37 0-4.105 2.733-4.627 4.773-.2.813-.347.96-.628.96s-.455-.227-.455-.654l.027-2.879-.054-3.08c0-.852.348-1.16 1.057-1.16 1.364 0 4.333.467 7.877.467s6.766-.466 7.876-.466c.709 0 1.057.307 1.057 1.16l-.054 3.079.027 2.88c0 .426-.147.653-.428.653-.28 0-.454-.147-.655-.96-.508-2.04-1.257-4.773-4.627-4.773h-.08c-.883 0-1.258.614-1.258 1.733v25.422c0 2 1.057 2.386 1.792 2.613.375.12.455.346.455.653 0 .266-.12.613-.481.613-.308 0-1.993-.227-3.624-.227s-3.304.227-3.625.227c-.374 0-.481-.347-.481-.613 0-.307.08-.534.455-.653.802-.227 1.805-.613 1.805-2.613V4.399c0-1.12-.374-1.733-1.257-1.733zM215.23 30.58V4.506c0-2-.937-2.346-1.806-2.613-.374-.12-.455-.346-.455-.653 0-.267.121-.613.482-.613.307 0 1.992.226 3.624.226s3.317-.226 3.624-.226c.375 0 .482.346.482.613s-.081.533-.455.653c-.829.267-1.792.613-1.792 2.613v9.691c0 .534.147.694.508.387.548-.467 1.23-.853 2.26-.853 4.28 0 7.075 4.346 7.075 10.424 0 5.772-2.769 9.532-7.021 9.532-1.03 0-2.822-.147-4.761-.147-1.632 0-2.969.16-3.477.16-.455 0-.575-.347-.575-.613 0-.267.08-.574.548-.693.749-.187 1.739-.574 1.739-1.814m3.704-12.224v12.038c0 1.386.481 1.773 1.885 1.773 2.715 0 3.973-2.653 3.973-8.305 0-5.386-1.178-8.185-3.451-8.185-1.592 0-2.394 1.386-2.394 2.693zm12.102 11.451V4.506c0-2-1.03-2.386-1.792-2.613-.375-.12-.455-.346-.455-.653s.12-.613.481-.613c.308 0 1.993.226 3.624.226s3.303-.226 3.625-.226c.374 0 .481.346.481.613s-.08.533-.455.653c-.802.227-1.805.613-1.805 2.613v25.301c0 2 .883 2.307 1.805 2.613.375.12.455.347.455.653 0 .267-.121.614-.481.614-.308 0-1.993-.227-3.625-.227s-3.316.227-3.624.227c-.374 0-.481-.347-.481-.614 0-.266.08-.533.455-.653.936-.306 1.792-.613 1.792-2.613M57.505 50.15l4.466 7.158h-.254l4.213-7.159h.267c-.013.107-.026.227-.04.334 0 .12-.013.253-.027.4v8.065c0 .16 0 .306.027.413.014.12.027.226.053.333v.053h-1.337v-.053c.04-.12.067-.24.08-.347.014-.106.027-.253.027-.413V52.03h.348l-3.745 6.359h-.28l-3.892-6.212h.334v6.758c0 .16 0 .307.027.413.014.107.04.227.08.347v.053h-.575v-.053c.014-.107.04-.227.054-.333s.026-.253.026-.413v-8.092c0-.16 0-.28-.026-.387 0-.106-.027-.226-.04-.333h.267zm15.82 0v.053c-.04.12-.067.226-.08.346a3 3 0 0 0-.027.414v7.425h-.388l6.326-8.305h.267c-.013.12-.04.24-.053.346a3 3 0 0 0-.027.4v8.119c0 .16 0 .306.027.413s.026.226.053.333v.053h-1.337v-.053c.04-.12.067-.24.08-.347.014-.106.027-.253.027-.413V51.51h.388l-6.326 8.305h-.267c.027-.12.04-.24.053-.346.014-.107.014-.254.014-.4V50.95c0-.16 0-.306-.027-.413s-.027-.227-.053-.334v-.053zm13.227 0v.053c-.04.12-.067.226-.08.346a3 3 0 0 0-.027.413v3.653h-.268l3.237-3.026q.4-.36.681-.64c.188-.186.335-.333.429-.453s.16-.213.2-.294l.027-.053h.789v.04c-.107.08-.227.16-.334.254-.108.093-.241.213-.388.346a14 14 0 0 0-.508.48l-.335.32-1.511 1.427v-.254l2.701 4.572c.415.707.776 1.24 1.07 1.587.295.346.549.573.736.653v.2c-.441.053-.816 0-1.15-.16a2.8 2.8 0 0 1-.87-.666 7.5 7.5 0 0 1-.735-1.04l-2.635-4.413h.322l-1.632 1.507.147-.307v4.226c0 .16 0 .306.027.413.026.107.04.226.08.347v.053h-1.338v-.053c.014-.107.04-.227.054-.334.013-.106.027-.253.027-.413v-7.998c0-.16 0-.307-.027-.413-.027-.107-.026-.227-.053-.334v-.053h1.337zm16.034.799c.682.533 1.03 1.28 1.03 2.24 0 .653-.161 1.226-.469 1.72-.307.492-.749.88-1.31 1.146-.562.266-1.204.4-1.94.4-.12 0-.24 0-.36-.014-.12-.013-.255-.013-.375-.026V56h.188q.962 0 1.644-.32a2.2 2.2 0 0 0 1.017-.92c.227-.4.347-.892.347-1.452 0-.507-.107-.96-.32-1.387a2.3 2.3 0 0 0-.963-.986q-.642-.36-1.525-.36h-1.458l.228-.227v8.612c0 .16 0 .306.027.413.026.107.04.226.08.347v.053h-1.338v-.053c.014-.107.04-.227.054-.334.013-.106.027-.253.027-.413v-7.998c0-.16 0-.307-.027-.413-.027-.107-.027-.227-.054-.334v-.053h2.621c1.258 0 2.234.267 2.916.786zm7.423 8.359a5.05 5.05 0 0 1-1.859-1.853 4.95 4.95 0 0 1-.682-2.56c0-.933.227-1.773.682-2.56a4.96 4.96 0 0 1 1.859-1.852 5 5 0 0 1 2.567-.68 5.03 5.03 0 0 1 2.568.68 5.05 5.05 0 0 1 1.859 1.853q.681 1.16.682 2.56a5 5 0 0 1-.682 2.559 5.05 5.05 0 0 1-1.859 1.853 5 5 0 0 1-2.568.68 5.03 5.03 0 0 1-2.567-.68m4.44-.36a4.2 4.2 0 0 0 1.444-1.693q.52-1.06.521-2.36 0-1.3-.481-2.36c-.321-.72-.762-1.28-1.324-1.692a3.15 3.15 0 0 0-1.912-.614c-.763 0-1.445.2-2.06.614-.615.413-1.083.973-1.431 1.693a5.35 5.35 0 0 0-.521 2.36q0 1.279.481 2.359c.321.706.749 1.28 1.311 1.693s1.19.626 1.885.626a3.65 3.65 0 0 0 2.073-.626zm13.639-7.999c.682.533 1.03 1.28 1.03 2.24 0 .653-.16 1.226-.468 1.72-.308.492-.749.88-1.311 1.146s-1.203.4-1.939.4c-.12 0-.24 0-.361-.014-.12-.013-.254-.013-.374-.026V56h.187q.963 0 1.645-.32a2.2 2.2 0 0 0 1.016-.92c.228-.4.348-.892.348-1.452 0-.507-.107-.96-.321-1.387a2.3 2.3 0 0 0-.963-.986q-.642-.36-1.524-.36h-1.458l.227-.227v8.612c0 .16 0 .306.027.413s.04.226.08.347v.053h-1.337v-.053c.013-.107.04-.227.053-.334.014-.106.027-.253.027-.413v-7.998c0-.16 0-.307-.027-.413-.026-.107-.027-.227-.053-.334v-.053h2.621c1.257 0 2.233.267 2.915.786zm8.599-.866c.187-.04.348-.12.508-.227l3.009 8.465c.121.333.214.6.294.8.081.2.134.347.174.413.041.08.067.133.08.174v.053h-1.364v-.053s0-.107-.013-.2a3 3 0 0 0-.094-.414 10 10 0 0 0-.253-.773l-2.769-7.878h.214l-3.062 7.865a9 9 0 0 0-.268.773 5 5 0 0 0-.107.413c-.013.08 0 .147 0 .187v.08h-.708v-.053s.039-.094.08-.174c.04-.08.093-.226.187-.413.093-.187.2-.467.321-.787l3.196-8.171c.187 0 .361-.027.548-.067zm2.046 6.745v.413h-4.961v-.413zm7.905-6.678v.053c-.04.12-.067.226-.08.346a3 3 0 0 0-.027.414v7.425h-.388l6.326-8.305h.267c-.013.12-.04.24-.053.346a3 3 0 0 0-.027.4v8.119c0 .16 0 .306.027.413.026.106.026.226.053.333v.053h-1.337v-.053c.04-.12.067-.24.08-.347a4 4 0 0 0 .027-.413V51.51h.388l-6.326 8.305h-.267c.026-.12.04-.24.053-.346.014-.107.014-.254.014-.4V50.95c0-.16 0-.306-.027-.413s-.027-.227-.054-.334v-.053zm.989-2.907c0 .147.014.267.041.387.026.12.066.227.12.333q.08.16.201.28a1 1 0 0 0 .428.293c.174.067.374.107.588.107.254 0 .495-.053.695-.16.201-.106.375-.267.495-.48s.188-.466.201-.773h.588c-.013.533-.214.96-.575 1.306-.361.334-.842.507-1.404.507s-1.043-.173-1.404-.507a1.78 1.78 0 0 1-.575-1.306h.588zm12.543 12.065a5.04 5.04 0 0 1-1.859-1.853 4.95 4.95 0 0 1-.682-2.56c0-.933.227-1.773.682-2.56a4.95 4.95 0 0 1 1.859-1.852 5 5 0 0 1 2.568-.68c.936 0 1.778.227 2.567.68a5.05 5.05 0 0 1 1.859 1.853q.682 1.16.682 2.56a5 5 0 0 1-.682 2.559 5.05 5.05 0 0 1-1.859 1.853 5 5 0 0 1-2.567.68 5.03 5.03 0 0 1-2.568-.68m4.453-.36a4.17 4.17 0 0 0 1.444-1.693q.522-1.06.522-2.36t-.481-2.36c-.321-.72-.763-1.28-1.324-1.692a3.15 3.15 0 0 0-1.913-.614c-.762 0-1.444.2-2.059.614-.615.413-1.083.973-1.431 1.693a5.35 5.35 0 0 0-.522 2.36q0 1.279.482 2.359c.32.706.749 1.28 1.31 1.693.562.413 1.19.626 1.886.626a3.65 3.65 0 0 0 2.073-.626zm9.442-8.798v.052c-.04.12-.066.227-.08.347a4 4 0 0 0-.027.413v7.999c0 .16 0 .306.027.413s.04.226.08.346v.054h-1.337v-.054c.027-.106.04-.226.054-.333.013-.106.013-.253.013-.413v-7.998c0-.16 0-.307-.013-.414-.014-.106-.027-.226-.054-.333v-.053h1.337zm4.587 2.932v.413h-4.827v-.413zm1.097-2.933v.053c-.014.107-.04.227-.054.334a4 4 0 0 0-.026.413v7.998c0 .16 0 .307.026.413.027.107.027.227.054.334v.053h-1.337v-.053c.04-.12.067-.24.08-.347s.026-.253.026-.413v-7.998c0-.16.001-.307-.026-.414a2 2 0 0 0-.08-.346v-.053h1.337z"/></g><defs><clipPath id="a"><path fill="#fff" d="M0 0h237v60H0z"/></clipPath></defs></svg>